<?xml version="1.0" encoding="UTF-8" standalone="no"?>
<!-- Created with Inkscape (http://www.inkscape.org/) -->

<svg
   xmlns:dc="http://purl.org/dc/elements/1.1/"
   xmlns:cc="http://creativecommons.org/ns#"
   xmlns:rdf="http://www.w3.org/1999/02/22-rdf-syntax-ns#"
   xmlns:svg="http://www.w3.org/2000/svg"
   xmlns="http://www.w3.org/2000/svg"
   xmlns:sodipodi="http://sodipodi.sourceforge.net/DTD/sodipodi-0.dtd"
   xmlns:inkscape="http://www.inkscape.org/namespaces/inkscape"
   width="280.21494mm"
   height="273.35352mm"
   viewBox="0 0 280.21493 273.35352"
   version="1.1"
   id="svg8"
   inkscape:version="0.92.3 (2405546, 2018-03-11)"
   sodipodi:docname="logo.svg">
  <defs
     id="defs2" />
  <sodipodi:namedview
     id="base"
     pagecolor="#ffffff"
     bordercolor="#666666"
     borderopacity="1.0"
     inkscape:pageopacity="0.0"
     inkscape:pageshadow="2"
     inkscape:zoom="0.35"
     inkscape:cx="341.56002"
     inkscape:cy="423.30826"
     inkscape:document-units="mm"
     inkscape:current-layer="layer1"
     showgrid="true"
     inkscape:window-width="1280"
     inkscape:window-height="981"
     inkscape:window-x="0"
     inkscape:window-y="19"
     inkscape:window-maximized="1">
    <inkscape:grid
       type="xygrid"
       id="grid608"
       originx="-92.675798"
       originy="56.962455" />
  </sodipodi:namedview>
  <metadata
     id="metadata5">
    <rdf:RDF>
      <cc:Work
         rdf:about="">
        <dc:format>image/svg+xml</dc:format>
        <dc:type
           rdf:resource="http://purl.org/dc/dcmitype/StillImage" />
        <dc:title />
      </cc:Work>
    </rdf:RDF>
  </metadata>
  <g
     inkscape:label="Capa 1"
     inkscape:groupmode="layer"
     id="layer1"
     transform="translate(-92.675801,-80.608948)">
    <path
       style="fill:#040755;fill-opacity:0.66037738;stroke-width:0.38871583"
       d="m 114.64625,353.36226 c -1.5237,-0.30251 -4.46229,-1.34465 -6.53018,-2.31587 -3.14044,-1.47495 -4.32067,-2.30689 -7.16446,-5.05023 -2.846173,-2.74563 -3.704534,-3.87934 -5.232817,-6.91138 -3.307077,-6.56107 -3.037706,4.23853 -3.037706,-121.79052 0,-126.029055 -0.269371,-115.22945 3.037706,-121.790525 1.528283,-3.032044 2.386644,-4.165739 5.232817,-6.91138 2.84617,-2.74563 4.02139,-3.57367 7.16446,-5.047966 6.79884,-3.189087 -4.2061,-2.930401 124.6672,-2.930401 128.8733,0 117.86836,-0.258686 124.66719,2.930401 3.14308,1.474296 4.31827,2.302336 7.16444,5.047966 2.84617,2.745641 3.70456,3.879336 5.23282,6.91138 3.30709,6.561075 3.03773,-4.23853 3.03773,121.790525 0,126.02905 0.26936,115.22945 -3.03773,121.79052 -1.52826,3.03204 -2.38665,4.16575 -5.23282,6.91138 -2.84617,2.74563 -4.02136,3.57367 -7.16444,5.04797 -6.80251,3.19081 4.25535,2.93422 -124.94733,2.89927 -98.5561,-0.0266 -115.48441,-0.11013 -117.85688,-0.58114 z"
       id="path1701"
       inkscape:connector-curvature="0" />
    <path
       style="fill:#ffffff;fill-opacity:0.94117647;stroke-width:0.38871583"
       d="m 203.14413,225.00814 c -1.6876,-0.47232 -3.22418,-2.05607 -3.81638,-3.93348 -0.35603,-1.12871 -0.49571,-5.28281 -0.49571,-14.7432 v -13.1717 l 0.98943,-1.90895 c 1.29088,-2.49054 2.80834,-3.24381 6.53637,-3.2446 3.30053,-7.7e-4 5.14942,0.79281 6.32612,2.7151 0.74356,1.21471 0.79934,2.103 0.92039,14.65568 0.1422,14.74604 -0.0464,16.60366 -1.8557,18.27583 -1.79256,1.65671 -5.46233,2.23474 -8.60452,1.35532 z m 3.99907,-18.49102 c 0,-13.48462 -0.0147,-13.73915 -0.79154,-13.73915 -0.77447,0 -0.79378,0.28802 -0.89572,13.36043 -0.0573,7.34823 -0.0134,13.58885 0.0977,13.86805 0.11107,0.27918 0.51413,0.44961 0.89572,0.37873 0.64588,-0.12 0.69379,-1.07766 0.69379,-13.86806 z m 51.69062,18.24847 c -0.91751,-0.436 -1.60189,-1.18851 -2.16228,-2.37749 -0.75939,-1.61124 -0.83128,-2.60079 -0.97437,-13.41355 -0.2082,-15.7321 0.28643,-18.60858 3.48346,-20.25763 1.9007,-0.9804 6.42278,-0.9804 8.32349,0 2.18867,1.12892 2.90764,2.71223 3.09353,6.81252 l 0.16087,3.54804 h -3.19736 -3.19735 l -0.11495,-3.14976 c -0.10433,-2.85827 -0.1882,-3.14975 -0.90649,-3.14975 -0.77688,0 -0.79153,0.25453 -0.79153,13.74438 0,13.48987 0.0146,13.74439 0.79153,13.74439 0.75869,0 0.79602,-0.28921 0.89941,-6.96764 0.0933,-6.03038 0.0268,-6.96764 -0.4947,-6.96764 -0.47265,0 -0.60259,-0.49397 -0.60259,-2.29073 V 201.75 h 3.7598 3.75981 v 11.64454 11.64455 h -1.59583 c -1.28504,0 -1.66553,-0.16729 -1.95376,-0.85902 -0.19685,-0.47247 -0.36922,-0.66384 -0.38302,-0.42529 -0.043,0.74262 -2.62733,1.66651 -4.63624,1.65741 -1.05546,-0.004 -2.5231,-0.29575 -3.26143,-0.6466 z m 77.10903,0.31613 c -2.05999,-0.64952 -2.84202,-1.29585 -3.67113,-3.03413 -0.79902,-1.6752 -0.85753,-2.47616 -0.98636,-13.50098 -0.21703,-18.57524 0.36048,-20.22082 7.18289,-20.46678 5.82518,-0.21001 7.49507,1.56903 7.72479,8.22968 l 0.13497,3.91333 h -3.18785 -3.18784 l -0.11328,-3.72243 c -0.10444,-3.4315 -0.17514,-3.72244 -0.90481,-3.72244 -0.77688,0 -0.79154,0.25453 -0.79154,13.74438 0,13.48987 0.0147,13.74439 0.79154,13.74439 0.74241,0 0.79844,-0.29026 0.90266,-4.67692 l 0.11117,-4.6769 h 3.1928 3.1928 l -0.13778,5.0587 c -0.14996,5.50634 -0.58903,6.83762 -2.77301,8.40791 -1.16963,0.84097 -5.69305,1.26561 -7.47997,0.70219 z M 120.66769,206.71325 V 188.3874 H 123.83385 127 v 6.6813 6.6813 h 0.98942 0.98943 v -6.6813 -6.6813 h 3.16614 3.16615 v 18.32585 18.32584 h -3.16615 -3.16614 v -9.16292 -9.16292 H 127.98942 127 v 9.16292 9.16292 h -3.16615 -3.16616 z m 35.6192,0.014 V 188.3158 l 5.63971,0.13124 c 5.07179,0.11803 5.76398,0.21675 6.87369,0.98037 2.26986,1.56192 2.32794,1.99317 2.32794,17.28583 0,12.34349 -0.0775,14.10039 -0.67835,15.38073 -1.00014,2.1311 -2.5911,2.64162 -8.91905,2.86205 l -5.24394,0.18266 V 206.7272 Z m 8.21807,0.17688 c 0.0958,-11.86457 0.0468,-13.02184 -0.57034,-13.45805 -0.37135,-0.26247 -0.81923,-0.47723 -0.9953,-0.47723 -0.17606,0 -0.32012,6.11102 -0.32012,13.58004 v 13.58004 l 0.89048,-0.122 0.89048,-0.122 z m 13.54922,-0.21229 v -18.37937 l 5.24394,0.14279 c 5.73449,0.15614 7.20712,0.58907 8.50531,2.50035 0.59214,0.8718 0.69632,1.94988 0.69632,7.20595 0,5.59652 -0.0731,6.2587 -0.77334,7.00513 -0.76764,0.81826 -0.76674,0.88399 0.1235,8.91666 0.49327,4.45077 0.9976,8.73658 1.12075,9.52403 l 0.2239,1.4317 h -3.16224 -3.16225 l -0.22928,-2.00439 c -0.12611,-1.10241 -0.53633,-5.22572 -0.91162,-9.16293 -0.37528,-3.93719 -0.82769,-7.15853 -1.00535,-7.15853 -0.17765,0 -0.37076,4.08036 -0.42911,9.06748 l -0.10613,9.06748 -3.06721,0.1115 -3.06721,0.11151 z m 7.83623,-4.63643 c 0.75856,-0.73176 0.63734,-7.72997 -0.147,-8.4866 -0.34206,-0.32999 -0.78729,-0.59996 -0.98943,-0.59996 -0.20655,0 -0.36749,2.09004 -0.36749,4.77235 0,4.85648 0.23701,5.53637 1.50392,4.31421 z m 48.36295,4.6411 V 188.3539 l 2.86035,0.11217 2.86035,0.11217 1.49311,2.47992 1.49311,2.47992 v -2.57537 -2.57536 h 3.16615 3.16615 v 18.32584 18.32585 h -3.11308 -3.11309 l -0.20637,-10.97642 c -0.19246,-10.23685 -0.26937,-11.15648 -1.14144,-13.64893 l -0.93505,-2.67253 -0.10388,13.64894 -0.10389,13.64894 h -3.16115 -3.16116 z m 43.53458,0.0168 V 188.3874 h 6.13442 6.13441 v 2.29073 2.29073 h -2.96826 -2.96827 v 4.39057 4.39057 h 2.77038 2.77038 v 2.48163 2.48162 h -2.77038 -2.77038 v 6.68129 6.6813 h 2.96827 2.96826 v 2.48163 2.48162 h -6.13441 -6.13442 z m 18.20537,0 V 188.3874 h 3.36403 3.36404 v 15.84423 15.84421 h 2.77038 2.77038 v 2.48163 2.48162 h -6.13442 -6.13441 z m 17.41383,0 V 188.3874 h 6.13441 6.13442 v 2.29073 2.29073 h -2.96826 -2.96827 v 4.39057 4.39057 h 2.77038 2.77038 v 2.48163 2.48162 h -2.77038 -2.77038 v 6.68129 6.6813 h 2.96827 2.96826 v 2.48163 2.48162 h -6.13442 -6.13441 z m -170.57639,-0.1909 V 188.3874 h 3.16615 3.16615 v 18.13495 18.13496 h -3.16615 -3.16615 z m 77.96647,0 V 188.3874 h 3.16615 3.16615 v 18.13495 18.13496 h -3.16615 -3.16615 z"
       id="path746"
       inkscape:connector-curvature="0" />
    <path
       style="fill:#28aaef;fill-opacity:0.94117647;stroke-width:0.38871583"
       d="m 234.14032,331.15976 c 0,-0.5198 0.60078,-0.61068 4.03684,-0.61068 3.22923,0 3.93796,0.0955 3.54259,0.47724 -0.29742,0.28718 -1.9051,0.53038 -4.03684,0.61067 -3.04071,0.11453 -3.54259,0.047 -3.54259,-0.47723 z M 172.21299,176.97467 c 0.70518,-2.31443 4.87695,-9.81814 8.0157,-14.41773 3.94159,-5.77608 7.04961,-9.57772 18.37973,-22.48159 12.04474,-13.71776 17.13975,-20.42373 22.21486,-29.2388 4.45568,-7.73917 8.15785,-17.072746 9.99752,-25.204779 0.87863,-3.883925 1.7512,-4.975088 3.24681,-4.060199 0.28652,0.175268 1.11403,2.65101 1.83892,5.50165 3.93773,15.485488 10.73639,28.123938 23.35639,43.418698 2.10274,2.54842 6.63805,7.79995 15.50815,17.95726 4.64103,5.31454 10.4517,12.98978 13.13935,17.3556 2.35022,3.81772 5.12634,9.19559 5.76602,11.16989 l 0.27832,0.85903 h -61.00174 -61.00176 z m 32.03962,-10.88097 c 0.4561,-4.15404 2.3796,-10.84442 4.72936,-16.44968 l 2.18692,-5.21682 -1.47728,1.52715 c -9.46997,9.78976 -15.55986,17.29233 -17.30291,21.31664 l -0.60627,1.39978 h 6.09362 6.09363 z"
       id="path748"
       inkscape:connector-curvature="0" />
    <path
       style="fill:#ff660f;fill-opacity:0.94117647;stroke-width:0.38871583"
       d="m 208.75458,301.3889 c -2.50324,-0.6152 -6.37684,-1.74281 -8.60798,-2.5058 l -4.05663,-1.38725 v -7.9696 -7.96959 l -1.87991,-0.92778 c -1.03394,-0.51028 -3.43797,-1.87581 -5.34228,-3.03452 l -3.46239,-2.10674 -7.39143,3.7905 c -6.31427,3.23812 -7.48227,3.71743 -8.0149,3.28906 -5.86945,-4.72062 -15.06905,-13.94594 -15.06905,-15.11119 0,-0.3062 1.78445,-3.53279 3.96543,-7.17018 l 3.96543,-6.61345 -2.38269,-3.80518 c -1.31048,-2.09283 -2.67605,-4.39862 -3.0346,-5.12395 -0.35856,-0.72533 -1.02627,-1.41573 -1.4838,-1.53422 -0.45754,-0.11848 -2.79094,-0.2188 -5.18535,-0.22292 -2.3944,-0.004 -5.81055,-0.11694 -7.59144,-0.25068 l -3.23801,-0.24318 -0.8073,-2.14072 c -0.44404,-1.17738 -0.92077,-2.61317 -1.05944,-3.19062 l -0.2521,-1.04992 h 17.97153 17.97152 l 0.91176,1.81349 c 1.41672,2.81788 4.77961,7.61923 7.68477,10.97195 1.4535,1.67741 2.64272,3.26661 2.64272,3.53155 0,0.26493 0.18153,0.4817 0.4034,0.4817 0.22187,0 1.86926,1.22337 3.66086,2.71861 9.90153,8.2636 20.06242,13.04164 32.94013,15.48974 5.51485,1.04839 18.36445,0.93884 23.94402,-0.20415 12.17965,-2.49501 22.63689,-7.47534 31.7385,-15.11564 1.89256,-1.58871 3.71805,-2.88856 4.05663,-2.88856 0.34321,0 0.6156,-0.32436 0.6156,-0.73304 0,-0.40318 0.95964,-1.82057 2.13254,-3.14976 2.48682,-2.81819 5.92392,-7.69473 7.5856,-10.76241 l 1.16551,-2.15167 17.90854,-7.6e-4 c 11.64387,-7.7e-4 17.90854,0.13228 17.90854,0.37985 0,0.28026 -2.16454,5.05486 -2.54375,5.61111 -0.0278,0.0408 -3.77603,0.43237 -8.32938,0.87018 -4.55336,0.43782 -8.31157,0.83396 -8.35158,0.88033 -0.0401,0.0463 -0.56445,1.02824 -1.16545,2.18195 -0.60099,1.15373 -1.97117,3.46404 -3.04486,5.13403 l -1.95217,3.03635 0.77973,1.35639 c 3.06209,5.32654 6.79786,12.32727 6.79786,12.73884 0,0.89762 -7.08023,8.19347 -11.53717,11.88852 -3.40348,2.82167 -4.52176,3.5525 -5.02789,3.28588 -0.35798,-0.18859 -3.58044,-1.98408 -7.16102,-3.98998 l -6.51014,-3.64711 -1.20735,0.76602 c -0.66405,0.4213 -3.09707,1.79892 -5.40671,3.06137 l -4.19935,2.29535 -0.2877,7.90436 c -0.15823,4.34739 -0.34869,7.96391 -0.42325,8.03672 -0.35544,0.34709 -8.74593,2.88635 -12.26187,3.71087 -4.97277,1.16618 -10.30766,1.29671 -10.66514,0.26098 -0.12683,-0.36747 -1.79253,-3.23521 -3.70155,-6.37274 l -3.47094,-5.70461 -6.27327,-0.0222 -6.27328,-0.0222 -4.13146,6.39496 -4.13145,6.39496 -2.64162,-0.0174 c -1.56511,-0.0108 -4.49643,-0.47319 -7.19297,-1.1359 z"
       id="path742"
       inkscape:connector-curvature="0" />
    <path
       style="fill:#ffffff;fill-opacity:1;stroke-width:0.38871583"
       d="m 207.4886,247.80413 c -1.79487,-0.50196 -2.22854,-1.85018 -2.06524,-6.42066 0.18102,-5.06645 0.30742,-5.19067 5.28179,-5.19067 4.31268,0 5.01936,0.37922 5.09683,2.73514 0.0405,1.23201 -0.089,1.48336 -0.81554,1.58314 -0.55724,0.0765 -1.0219,-0.16655 -1.30957,-0.68506 -0.39596,-0.71373 -0.74221,-0.7911 -3.09398,-0.6913 l -2.64813,0.11238 v 2.86341 2.86342 h 2.76496 c 2.31865,0 2.7865,-0.10789 2.89835,-0.66813 0.10938,-0.54803 -0.15642,-0.66813 -1.47871,-0.66813 -1.5825,0 -1.61209,-0.0249 -1.61209,-1.35371 v -1.3537 l 2.67144,0.11289 2.67144,0.1129 0.10242,2.09984 c 0.12767,2.61728 -0.5186,3.87753 -2.28948,4.46445 -1.61397,0.53494 -4.42489,0.57308 -6.17449,0.0838 z m -18.26423,-5.78906 0.10927,-5.82227 h 1.18731 1.1873 l 0.10927,5.82227 0.10927,5.82227 h -1.40581 -1.40581 z m 3.86907,-0.0954 v -5.91772 h 2.00208 2.00209 l 2.25243,4.48602 2.25243,4.48601 0.19788,-4.39057 c 0.19732,-4.37785 0.20075,-4.39056 1.1873,-4.39056 h 0.98943 l 0.10927,5.82227 0.10927,5.82227 h -2.10801 -2.10802 l -2.21872,-4.48601 -2.21872,-4.48602 -0.037,4.48602 -0.037,4.48601 h -1.1873 -1.1873 z m 24.14189,0 v -5.91772 h 4.35347 4.35345 v 1.52716 1.52715 h -3.16615 c -2.90231,0 -3.16615,0.0636 -3.16615,0.76358 0,0.69569 0.26384,0.76357 2.96826,0.76357 h 2.96827 v 1.33626 1.33627 h -2.96827 c -2.70442,0 -2.96826,0.0678 -2.96826,0.76357 0,0.69994 0.26384,0.76358 3.16615,0.76358 h 3.16615 v 1.52715 1.52715 h -4.35345 -4.35347 z m 9.89423,0 v -5.91772 h 2.00208 2.00209 l 2.25243,4.48602 2.25243,4.48601 0.11328,-4.19441 c 0.0623,-2.30693 0.27188,-4.34743 0.46573,-4.53443 0.19385,-0.187 0.81073,-0.22904 1.37086,-0.0934 l 1.01839,0.24657 v 5.71955 5.71956 h -2.29559 -2.2956 l -2.21871,-4.48602 -2.21873,-4.48601 -0.037,4.48601 -0.037,4.48602 h -1.1873 -1.18731 z m 12.35746,0.0954 0.10927,-5.82227 1.08837,-0.12081 1.08836,-0.12081 v 5.94308 5.94308 h -1.19761 -1.19761 z m 3.86906,-0.0954 v -5.91772 h 4.35346 4.35345 v 1.52716 1.52715 h -3.16615 c -2.90229,0 -3.16615,0.0636 -3.16615,0.76358 0,0.69569 0.26386,0.76357 2.96827,0.76357 h 2.96827 v 1.33626 1.33627 h -2.96827 c -2.70441,0 -2.96827,0.0678 -2.96827,0.76357 0,0.69994 0.26386,0.76358 3.16615,0.76358 h 3.16615 v 1.52715 1.52715 h -4.35345 -4.35346 z m 9.89422,-0.0338 v -5.95149 l 4.33468,0.12922 c 2.74688,0.0819 4.51336,0.30195 4.82249,0.60078 0.80135,0.77463 0.93984,4.89985 0.20101,5.98762 -0.41671,0.61353 -0.48291,0.97621 -0.19504,1.06877 0.23964,0.077 0.52483,1.03482 0.63375,2.12836 l 0.19804,1.98825 h -1.21377 c -1.11311,0 -1.22395,-0.11686 -1.3366,-1.4093 l -0.12283,-1.4093 -2.47308,-0.0224 -2.4731,-0.0224 -3.9e-4,1.43171 c -3.9e-4,1.33616 -0.0798,1.4317 -1.18777,1.4317 h -1.18731 v -5.95151 z m 7.45161,-1.49025 c -0.12519,-1.00666 -0.21922,-1.04626 -2.60368,-1.09643 l -2.4738,-0.0521 2.5e-4,1.22177 c 2.3e-4,1.21953 0.004,1.22196 2.27591,1.33626 2.67239,0.13446 2.97443,-0.0175 2.80132,-1.40954 z m 3.32278,1.61948 0.10927,-5.82227 h 1.1873 1.18731 l 0.10927,5.82227 0.10927,5.82228 h -1.40581 -1.40581 z m 4.71317,1.52716 c 0.88665,-2.36232 1.88067,-5.03392 2.20893,-5.93691 0.59572,-1.63869 0.60024,-1.64158 2.39481,-1.52715 l 1.79795,0.11463 2.11575,5.72672 c 1.16367,3.1497 2.11575,5.76972 2.11575,5.82227 0,0.0526 -0.60404,0.0956 -1.34229,0.0956 -1.10171,0 -1.38679,-0.17107 -1.59061,-0.95447 -0.2368,-0.91014 -0.38387,-0.95448 -3.16615,-0.95448 -2.78228,0 -2.92936,0.0444 -3.16615,0.95448 -0.20488,0.78744 -0.48735,0.95447 -1.61421,0.95447 h -1.36586 z m 6.13625,-1.16765 c -0.47121,-1.81112 -1.50461,-3.78907 -1.80984,-3.46406 -0.26145,0.27841 -1.60859,3.81457 -1.60859,4.22248 0,0.0676 0.82073,0.12289 1.82386,0.12289 1.70745,0 1.80923,-0.0563 1.59457,-0.88131 z"
       id="path744"
       inkscape:connector-curvature="0" />
    <path
       style="fill:#ffffff;fill-opacity:0.94117647;stroke-width:0.38871583"
       d="m 235.4124,343.42079 v -2.09984 h 1.97885 c 1.62562,0 1.97656,-0.11925 1.96608,-0.66813 -0.007,-0.36747 -0.68656,-6.98195 -1.51009,-14.69885 l -1.49734,-14.03073 h 2.26787 2.26786 l 0.22484,2.76796 c 0.12367,1.52238 0.36775,5.08734 0.5424,7.92211 l 0.31756,5.15415 0.33121,-7.92211 0.3312,-7.92211 h 2.32631 c 1.95175,0 2.32629,0.10757 2.32617,0.66813 -7e-5,0.36747 -0.69927,7.30951 -1.55378,15.42675 -1.04816,9.95688 -1.75116,15.12708 -2.16074,15.89113 -0.72764,1.3574 -1.5243,1.59932 -5.28907,1.60616 l -2.86933,0.005 z M 120.63942,322.61331 v -16.79869 h 2.77039 2.77038 v 6.29951 c 0,5.34504 0.09,6.29952 0.59365,6.29952 0.50371,0 0.59366,-0.95448 0.59366,-6.29952 v -6.29951 h 2.77038 2.77037 v 16.79869 16.7987 h -2.77037 -2.77038 v -8.01756 c 0,-6.87219 -0.0848,-8.01755 -0.59366,-8.01755 -0.50884,0 -0.59365,1.14536 -0.59365,8.01755 v 8.01756 h -2.77038 -2.77039 z m 14.24768,3.07254 v -13.76261 h 2.5775 2.5775 l -0.10388,13.64894 -0.104,13.64894 -2.47357,0.11366 -2.47355,0.11366 z m 8.25605,12.99632 -0.93432,-0.72985 v -12.21088 c 0,-11.67209 0.0349,-12.24809 0.79096,-13.054 0.66153,-0.70517 1.09861,-0.81459 2.67144,-0.66881 l 1.88048,0.17431 v -3.20738 -3.20737 l 2.47355,0.11366 2.47355,0.11367 v 16.60779 16.60781 l -2.47355,0.11366 c -1.58397,0.0728 -2.47355,-0.0351 -2.47355,-0.29977 0,-0.29045 -0.22773,-0.29587 -0.76552,-0.0182 -1.17159,0.60486 -2.60941,0.47279 -3.64304,-0.33463 z m 4.40856,-13.22798 c 0,-6.15367 -0.13603,-9.29524 -0.39578,-9.14038 -0.24601,0.14667 -0.39576,3.69459 -0.39576,9.37635 0,5.83907 0.14294,9.14039 0.39576,9.14039 0.25311,0 0.39578,-3.37997 0.39578,-9.37636 z m 7.12384,0.21343 v -13.74438 h 2.37461 c 1.58308,0 2.37461,0.15272 2.37461,0.45815 0,0.35634 0.10557,0.35634 0.47493,0 0.79267,-0.76468 3.2666,-0.55764 4.11402,0.34428 0.64247,0.6838 0.77321,1.53043 0.88432,5.72683 l 0.1304,4.9244 h -2.19333 -2.19333 l -0.11379,-3.53155 c -0.0653,-2.02665 -0.28244,-3.53154 -0.50956,-3.53154 -0.25282,0 -0.43361,4.17158 -0.50051,11.5491 l -0.10479,11.5491 h -2.3688 -2.36882 z m 12.91637,13.25693 c -1.00283,-0.70739 -1.41913,-2.95795 -1.42816,-7.72099 -0.0101,-5.0482 0.39119,-5.89763 3.69315,-7.82815 l 2.23246,-1.30521 v -2.97365 c 0,-2.38871 -0.11677,-2.97364 -0.59364,-2.97364 -0.47116,0 -0.59366,0.55148 -0.59366,2.67252 v 2.67252 h -2.42065 -2.42063 l 0.16088,-3.86414 c 0.15232,-3.65821 0.21922,-3.91255 1.2554,-4.77236 0.92384,-0.76658 1.52021,-0.90821 3.82422,-0.90821 3.30467,0 4.57305,0.49987 5.12185,2.01854 0.25647,0.70972 0.41547,5.80341 0.41547,13.30997 v 12.16026 h -2.37462 c -1.37304,0 -2.37462,-0.1667 -2.37462,-0.39522 0,-0.27244 -0.23782,-0.27244 -0.76551,0 -1.04966,0.54192 -2.89767,0.49624 -3.73194,-0.0922 z m 4.49745,-7.76774 c 0,-3.56163 -0.0722,-3.99764 -0.59364,-3.58025 -0.44455,0.35592 -0.59366,1.31058 -0.59366,3.80101 0,1.82915 0.11873,3.44025 0.26385,3.58024 0.73085,0.70504 0.92345,-0.0878 0.92345,-3.801 z m 8.03639,7.33424 -1.11043,-0.92097 -0.12316,-12.82342 -0.12316,-12.82342 h 2.39303 2.39303 l 0.10478,11.5491 c 0.0669,7.37751 0.24769,11.5491 0.50052,11.5491 0.25281,0 0.4336,-4.17159 0.50051,-11.5491 l 0.10478,-11.5491 h 2.3688 2.36882 v 13.74438 13.74439 h -2.37462 c -1.37304,0 -2.37461,-0.1667 -2.37461,-0.39522 0,-0.27244 -0.23783,-0.27244 -0.76552,0 -1.25446,0.64765 -2.68221,0.45332 -3.8627,-0.52574 z m 18.48013,-12.82343 v -13.74438 h 2.37461 2.37462 v 13.74438 13.74439 h -2.37462 -2.37461 z m 8.22947,13.17314 c -0.69538,-0.37723 -1.15411,-1.01509 -1.30771,-1.81839 -0.13015,-0.68055 -0.18243,-6.25676 -0.11621,-12.3916 0.1426,-13.21064 -0.13326,-12.45099 4.58455,-12.62416 5.17276,-0.18986 5.96344,0.79499 6.0014,7.47517 l 0.0223,3.93154 -2.47356,-0.11365 -2.47356,-0.11367 -0.11379,-3.53155 c -0.0626,-1.94234 -0.28522,-3.53154 -0.49471,-3.53154 -0.23389,0 -0.38092,3.68419 -0.38092,9.54471 0,5.87794 0.14673,9.54472 0.38193,9.54472 0.21321,0 0.43173,-1.72871 0.4947,-3.91333 l 0.11279,-3.91334 2.47356,-0.11366 2.47356,-0.11367 -0.009,3.93155 c -0.0101,4.38224 -0.41163,6.60122 -1.35835,7.5145 -0.90095,0.86912 -6.34661,1.03379 -7.81657,0.23637 z m 11.71925,-0.23119 c -0.65364,-0.6957 -0.77102,-1.53676 -0.88247,-6.32295 -0.14922,-6.40874 -0.0726,-6.61224 3.30615,-8.77633 l 2.16528,-1.38687 v -3.00025 c 0,-1.74564 -0.1655,-3.00026 -0.39577,-3.00026 -0.22616,0 -0.39578,1.14537 -0.39578,2.67252 v 2.67252 h -2.41064 -2.41064 l 0.13498,-3.99602 c 0.17154,-5.07908 0.3658,-5.30993 4.5991,-5.46532 3.64,-0.1336 4.84173,0.35029 5.50668,2.21732 0.3245,0.9111 0.47938,5.06131 0.49472,13.25719 l 0.0223,11.93089 h -2.35126 c -1.29318,0 -2.46162,-0.17227 -2.59651,-0.38282 -0.16395,-0.25591 -0.4911,-0.25591 -0.98677,0 -1.23312,0.63663 -2.98922,0.44268 -3.79941,-0.41962 z m 4.58896,-7.42855 c 0,-2.59032 -0.14147,-3.94696 -0.39577,-3.79535 -0.22091,0.13171 -0.39578,1.91291 -0.39578,4.03131 0,2.27572 0.15847,3.79536 0.39578,3.79536 0.23885,0 0.39577,-1.5983 0.39577,-4.03132 z m 32.63413,7.75375 c -0.10445,-0.26247 -0.14334,-7.77894 -0.0865,-16.70325 l 0.10333,-16.226 4.25451,-0.10836 4.25451,-0.10837 v 2.30365 2.30364 h -1.38518 -1.38519 v 4.00879 4.00878 h 1.38519 1.38518 v 2.48162 2.48163 h -1.38518 -1.38519 v 5.53593 5.53593 h 1.38519 1.38518 v 2.48163 2.48162 h -4.16798 c -2.96931,0 -4.2226,-0.13725 -4.35784,-0.47724 z m 19.21158,-0.0156 c -0.54481,-0.26518 -1.20169,-1.07755 -1.46179,-1.80788 -0.57512,-1.61479 -0.68346,-20.02603 -0.13137,-22.32466 0.58714,-2.44458 1.58173,-2.95825 5.42846,-2.80361 4.73727,0.19045 4.64567,0.0383 4.79874,7.97038 l 0.12501,6.47777 h -2.79645 -2.79644 v 4.39056 c 0,2.67253 0.15486,4.39058 0.39576,4.39058 0.23087,0 0.39577,-1.27264 0.39577,-3.05431 v -3.05431 h 2.37462 2.37462 v 3.79303 c 0,4.55038 -0.31958,5.51827 -2.00966,6.08661 -1.69922,0.57143 -5.4655,0.53535 -6.69727,-0.0642 z m 3.95769,-19.55109 c 0,-1.90894 -0.16296,-3.2452 -0.39577,-3.2452 -0.2328,0 -0.39576,1.33626 -0.39576,3.2452 0,1.90895 0.16296,3.2452 0.39576,3.2452 0.23281,0 0.39577,-1.33625 0.39577,-3.2452 z m 8.31116,19.55109 c -0.54483,-0.26518 -1.20169,-1.07755 -1.46181,-1.80788 -0.57512,-1.61479 -0.68346,-20.02603 -0.13137,-22.32466 0.58714,-2.44458 1.58173,-2.95825 5.42846,-2.80361 4.59573,0.18476 4.6409,0.24533 4.80414,6.44314 l 0.13039,4.95071 h -2.40606 -2.40607 v -3.627 c 0,-2.16347 -0.1597,-3.62699 -0.39576,-3.62699 -0.2533,0 -0.39578,3.4361 -0.39578,9.54471 0,6.10862 0.14248,9.54472 0.39578,9.54472 0.23871,0 0.39576,-1.59079 0.39576,-4.00879 v -4.00877 h 2.37461 2.37462 v 4.7475 c 0,2.61113 -0.16539,5.16712 -0.36751,5.67998 -0.21302,0.54048 -0.90333,1.11266 -1.64214,1.3611 -1.69922,0.57143 -5.4655,0.53535 -6.69726,-0.0642 z m 12.82277,-0.0523 c -0.67487,-0.2834 -1.37051,-0.83505 -1.5459,-1.22587 -0.17539,-0.39083 -0.40052,-5.39227 -0.50031,-11.11433 -0.0999,-5.72204 -0.33914,-10.40373 -0.5319,-10.40373 -0.19275,0 -0.35045,-0.94493 -0.35045,-2.09984 0,-1.1549 0.1706,-2.09983 0.37913,-2.09983 0.2085,0 0.43113,-1.33149 0.4947,-2.95886 l 0.11559,-2.95886 2.47356,-0.11367 2.47356,-0.11366 v 3.07253 c 0,2.818 0.0655,3.07252 0.79153,3.07252 0.6956,0 0.79154,0.25453 0.79154,2.09983 0,1.84531 -0.0959,2.09984 -0.79154,2.09984 -0.77043,0 -0.79153,0.25453 -0.79153,9.54471 0,9.29019 0.0211,9.54472 0.79153,9.54472 0.6956,0 0.79154,0.25453 0.79154,2.09984 v 2.09983 l -1.68202,-0.0149 c -0.92511,-0.009 -2.23417,-0.24682 -2.90903,-0.53023 z m 5.77836,-13.19922 v -13.74438 h 2.37461 c 1.37304,0 2.37461,0.1667 2.37461,0.39522 0,0.27244 0.23783,0.27244 0.76553,0 0.88313,-0.45594 2.79279,-0.51331 3.42974,-0.10303 1.04642,0.67402 1.47587,2.40009 1.65788,6.66336 l 0.19204,4.49811 h -2.42894 -2.42894 v -3.627 c 0,-3.35077 -0.35983,-4.49935 -0.94707,-3.02308 -0.13214,0.33215 -0.24024,5.57219 -0.24024,11.64455 v 11.04064 h -2.37461 -2.37461 z m 11.87306,0 v -13.74438 h 2.37462 2.37461 v 13.74438 13.74439 h -2.37461 -2.37462 z m 8.71472,13.27447 c -1.86854,-0.95099 -1.97457,-1.65341 -1.98081,-13.12205 -0.003,-6.52212 0.15706,-11.17932 0.40964,-11.87826 0.54878,-1.51867 1.81716,-2.01854 5.12184,-2.01854 2.31484,0 2.89846,0.14001 3.84013,0.9213 1.09053,0.90479 1.11293,1.00741 1.25007,5.72682 l 0.13963,4.80554 h -2.40046 -2.40045 l -0.11379,-3.50067 c -0.0774,-2.37933 -0.27226,-3.55132 -0.60851,-3.65881 -0.38701,-0.12371 -0.49471,1.93371 -0.49471,9.4502 0,7.51657 0.1077,9.5739 0.49471,9.45008 0.34224,-0.10949 0.52948,-1.35485 0.6075,-4.04059 l 0.11279,-3.88233 h 2.39959 2.3996 l -0.13777,5.14396 c -0.12689,4.7375 -0.20841,5.21208 -1.03173,6.00592 -0.73255,0.70633 -1.41137,0.88317 -3.7598,0.97949 -1.82043,0.0747 -3.22394,-0.0647 -3.84747,-0.38206 z m 11.76084,-0.008 c -0.35831,-0.26247 -0.83759,-0.96088 -1.06506,-1.55201 -0.58981,-1.53271 -0.52084,-10.14851 0.0908,-11.33335 0.27095,-0.52496 1.59803,-1.64168 2.94905,-2.48163 l 2.45641,-1.52715 -0.0856,-2.83277 c -0.0563,-1.86502 -0.25459,-2.88672 -0.58029,-2.99067 -0.3646,-0.11639 -0.49471,0.55327 -0.49471,2.54643 v 2.70433 h -2.37461 -2.37461 v -3.18823 c 0,-5.4979 0.74795,-6.35651 5.53731,-6.35651 2.31446,0 2.89861,0.1401 3.84013,0.92097 l 1.11044,0.92098 0.11873,12.82341 0.11876,12.82341 h -2.39442 c -1.38669,0 -2.39442,-0.16632 -2.39442,-0.39521 0,-0.27244 -0.23783,-0.27244 -0.76552,0 -1.04346,0.53872 -2.90133,0.49744 -3.69236,-0.082 z m 4.37346,-7.91604 c 0.10097,-3.50858 0.0468,-3.8873 -0.49472,-3.45378 -0.8008,0.64113 -0.90844,7.80708 -0.11346,7.55275 0.34298,-0.10973 0.52951,-1.36695 0.60818,-4.09897 z m -151.09929,-8.59605 v -16.6078 h 2.37461 2.37462 v 16.6078 16.60781 h -2.37462 -2.37461 z m 75.19609,0 v -16.6078 h 2.37461 2.37461 v 16.6078 16.60781 h -2.37461 -2.37461 z m -96.73562,-12.50357 c 1.21057,-3.69955 1.04125,-3.5217 3.4712,-3.64604 1.23067,-0.063 2.23757,0.002 2.23757,0.14441 0,0.14241 -0.54735,1.18182 -1.21634,2.30979 -1.18717,2.00165 -1.25903,2.05086 -2.99494,2.05086 -1.6639,0 -1.76046,-0.0554 -1.49749,-0.85902 z m 106.8576,0 c 1.21055,-3.69955 1.04124,-3.5217 3.47119,-3.64604 1.23067,-0.063 2.23758,-0.0238 2.23758,0.087 0,0.11081 -0.48233,1.15022 -1.07186,2.30978 l -1.07188,2.10829 h -1.92306 c -1.81373,0 -1.90709,-0.0488 -1.64197,-0.85902 z m -141.91302,-2.004 v -2.09984 h 2.5725 2.57249 v 2.09984 2.09984 h -2.57249 -2.5725 z m 63.71879,0 v -2.09984 h 2.37461 2.37462 v 2.09984 2.09984 h -2.37462 -2.37461 z m 119.12643,0 v -2.09984 h 2.37462 2.37461 v 2.09984 2.09984 h -2.37461 -2.37462 z"
       id="path740"
       inkscape:connector-curvature="0" />
  </g>
</svg>
