<?xml version="1.0" encoding="UTF-8" standalone="no"?>
<!-- Created with Inkscape (http://www.inkscape.org/) -->

<svg
   xmlns:dc="http://purl.org/dc/elements/1.1/"
   xmlns:cc="http://creativecommons.org/ns#"
   xmlns:rdf="http://www.w3.org/1999/02/22-rdf-syntax-ns#"
   xmlns:svg="http://www.w3.org/2000/svg"
   xmlns="http://www.w3.org/2000/svg"
   xmlns:sodipodi="http://sodipodi.sourceforge.net/DTD/sodipodi-0.dtd"
   xmlns:inkscape="http://www.inkscape.org/namespaces/inkscape"
   width="157.15317mm"
   height="162.44801mm"
   viewBox="0 0 157.15316 162.44801"
   version="1.1"
   id="svg835"
   inkscape:version="0.92.3 (2405546, 2018-03-11)"
   sodipodi:docname="svg-1.svg">
  <style
     type="text/css"
     id="style2"><![CDATA[
		path {
			fill:#007aff;
		}
	]]></style>
  <defs
     id="defs829" />
  <sodipodi:namedview
     id="base"
     pagecolor="#ffffff"
     bordercolor="#666666"
     borderopacity="1.0"
     inkscape:pageopacity="0.0"
     inkscape:pageshadow="2"
     inkscape:zoom="0.35"
     inkscape:cx="378.39322"
     inkscape:cy="231.14284"
     inkscape:document-units="mm"
     inkscape:current-layer="layer1"
     showgrid="false"
     inkscape:window-width="1280"
     inkscape:window-height="981"
     inkscape:window-x="0"
     inkscape:window-y="19"
     inkscape:window-maximized="1" />
  <metadata
     id="metadata832">
    <rdf:RDF>
      <cc:Work
         rdf:about="">
        <dc:format>image/svg+xml</dc:format>
        <dc:type
           rdf:resource="http://purl.org/dc/dcmitype/StillImage" />
        <dc:title />
      </cc:Work>
    </rdf:RDF>
  </metadata>
  <g
     inkscape:label="Capa 1"
     inkscape:groupmode="layer"
     id="layer1"
     transform="translate(-7.2286999,-47.541869)">
    <path
       d="m 9.9416389,209.17098 c -1.5960979,-0.97104 -2.6881741,-3.07835 -2.7128849,-5.2349 -0.012123,-1.04676 2.0127921,-5.56506 5.522312,-12.32295 4.712605,-9.07456 17.348196,-33.51071 22.953593,-44.39027 2.172273,-4.21621 4.871314,-7.43637 7.5541,-9.01262 2.052496,-1.20592 2.97951,-1.28804 16.475389,-1.45953 7.865276,-0.10002 14.300507,-0.28271 14.300507,-0.40618 0,-0.12353 -3.533692,-6.11515 -7.852632,-13.31485 -9.42103,-15.70486 -12.209099,-21.52087 -13.026546,-27.173727 -1.122342,-7.76148 0.432434,-17.66434 3.991258,-25.42134 6.544756,-14.265387 17.545338,-22.07205 32.179239,-22.836322 15.881646,-0.829455 29.268596,7.528656 35.694156,22.285512 3.081,7.07586 4.21717,12.48297 4.20339,20.00429 -0.0182,9.9482 -1.39028,13.323457 -14.23345,35.014787 l -6.77509,11.44274 9.77343,0.2934 c 8.68204,0.26064 10.01222,0.43448 11.91182,1.55662 1.17611,0.69477 2.65864,1.88305 3.29449,2.64062 0.63587,0.7576 4.26785,7.71494 8.0711,15.46079 3.80324,7.74585 10.56022,21.49354 15.01551,30.5504 4.87368,9.9074 8.10053,17.11333 8.10053,18.08945 0,1.01079 -0.58913,2.26907 -1.56268,3.33769 l -1.56268,1.71529 -75.018609,-0.02 c -61.24259,-0.0177 -75.253214,-0.16346 -76.2962521,-0.79809 z M 138.52592,201.14517 c -1.55731,-1.34457 -1.9048,-3.89288 -0.60552,-4.44016 1.45196,-0.61157 3.26177,0.31021 5.89617,3.00306 2.50257,2.55812 2.71531,2.65331 5.92841,2.65331 2.96362,0 3.4554,-0.17122 4.44069,-1.54616 2.01037,-2.80536 3.34158,0.25588 -16.29701,-37.47649 -10.1087,-19.42218 -10.77131,-20.29732 -16.21403,-21.4143 -1.58377,-0.32503 -5.92327,-0.59095 -9.64329,-0.59095 h -6.76367 l -6.603253,11.17936 c -5.371637,9.09421 -6.806215,11.14641 -7.691351,11.00263 -0.759171,-0.12331 -3.016873,-3.51483 -7.468915,-11.21974 l -6.380816,-11.043 -12.369974,0.21713 c -11.460849,0.20116 -12.571615,0.31511 -15.113745,1.54999 -1.509095,0.73307 -3.342383,2.03985 -4.074003,2.90397 -0.731587,0.86412 -7.255257,12.42223 -14.497001,25.6847 -14.159678,25.93184 -14.397898,26.52088 -11.854636,29.31252 l 1.312193,1.44034 H 80.230327 139.93451 Z M 126.559,195.84921 c -1.24964,-0.29123 -3.26944,-0.72755 -4.48847,-0.9696 -2.57344,-0.511 -3.71198,-1.94945 -2.78678,-3.52084 0.49417,-0.83933 1.27498,-1.00134 4.27406,-0.88695 6.64593,0.25353 10.37853,2.21225 8.95876,4.70119 -0.67976,1.19169 -2.74151,1.42572 -5.95757,0.6762 z m -41.174095,-1.71356 c -3.104385,-0.49691 -4.400478,-1.35799 -4.400478,-2.92359 0,-2.15979 1.191067,-2.45599 7.036911,-1.74991 5.680435,0.68611 6.862669,1.18191 6.862669,2.87802 0,2.3666 -2.71951,2.88063 -9.499102,1.79548 z m 15.201505,0.20604 c -0.58088,-0.63759 -0.40641,-2.84003 0.28511,-3.59909 0.41949,-0.46045 2.63316,-0.70417 6.39638,-0.70417 5.20771,0 5.80925,0.11156 6.32707,1.17363 0.40655,0.83384 0.40655,1.51337 0,2.34722 -0.52039,1.06731 -1.11936,1.17362 -6.61218,1.17362 -3.322,0 -6.20037,-0.1761 -6.39638,-0.39121 z m -29.042444,-5.39936 c -2.891546,-2.29918 -6.062888,-6.47733 -6.062888,-7.98767 0,-1.50776 0.953977,-2.65235 2.210645,-2.65235 0.510183,0 1.587854,1.00824 2.394853,2.24054 0.806982,1.23231 2.408375,3.01473 3.558658,3.96096 2.754369,2.26573 3.213269,3.27667 2.204786,4.85709 -1.062839,1.66559 -1.771581,1.5967 -4.306054,-0.41857 z m -9.147085,-16.06799 c -0.68791,-0.93077 -1.671063,-6.33765 -1.816699,-9.991 -0.130125,-3.2626 0.900532,-4.88775 2.701653,-4.26025 1.237552,0.43112 1.296184,0.64566 2.214092,8.1011 0.497778,4.04312 0.492773,5.33207 -0.02345,6.01477 -0.802068,1.0608 -2.341614,1.12858 -3.075654,0.13529 z m -1.085676,-20.5089 c -0.352838,-0.38728 -0.637979,-2.16971 -0.633637,-3.96093 0.0121,-5.13839 1.655809,-7.5594 3.905564,-5.75367 0.821996,0.65977 0.90146,1.31118 0.580017,4.75501 -0.463324,4.96411 -2.020851,6.96952 -3.851944,4.95959 z m 36.857738,-41.53623 c 6.244027,-2.13908 11.826557,-8.36035 13.637397,-15.197817 1.23907,-4.67847 0.79517,-11.71059 -1.01255,-16.0406 -1.94398,-4.65638 -5.70181,-8.87119 -9.96182,-11.17319 -3.293027,-1.77947 -3.882134,-1.90201 -9.144304,-1.90201 -4.983475,0 -5.97295,0.17921 -8.681409,1.57268 -4.268552,2.19605 -8.092249,6.31674 -10.179117,10.96972 -1.621147,3.61462 -1.732786,4.26128 -1.732786,10.03735 0,5.45328 0.163866,6.55047 1.403547,9.40123 4.752227,10.927867 15.166829,15.931147 25.671042,12.332637 z"
       id="path937"
       inkscape:connector-curvature="0"
       style="fill:#007aff;stroke-width:0.91027939" />
  </g>
</svg>
