<?xml version="1.0" encoding="UTF-8" standalone="no"?>
<!-- Created with Inkscape (http://www.inkscape.org/) -->

<svg
   xmlns:dc="http://purl.org/dc/elements/1.1/"
   xmlns:cc="http://creativecommons.org/ns#"
   xmlns:rdf="http://www.w3.org/1999/02/22-rdf-syntax-ns#"
   xmlns:svg="http://www.w3.org/2000/svg"
   xmlns="http://www.w3.org/2000/svg"
   xmlns:sodipodi="http://sodipodi.sourceforge.net/DTD/sodipodi-0.dtd"
   xmlns:inkscape="http://www.inkscape.org/namespaces/inkscape"
   width="283.83908mm"
   height="262.86145mm"
   viewBox="0 0 283.83908 262.86145"
   version="1.1"
   id="svg8"
   inkscape:version="0.92.3 (2405546, 2018-03-11)"
   sodipodi:docname="dibujo.svg">

	<style type="text/css">
	<![CDATA[
		path {
			fill:#007aff;
		}
	]]> 
  </style>

  <defs
     id="defs2" />
  <sodipodi:namedview
     id="base"
     pagecolor="#ffffff"
     bordercolor="#666666"
     borderopacity="1.0"
     inkscape:pageopacity="0.0"
     inkscape:pageshadow="2"
     inkscape:zoom="0.35"
     inkscape:cx="645.12141"
     inkscape:cy="449.87493"
     inkscape:document-units="mm"
     inkscape:current-layer="layer1"
     showgrid="false"
     inkscape:window-width="1280"
     inkscape:window-height="981"
     inkscape:window-x="0"
     inkscape:window-y="19"
     inkscape:window-maximized="1" />
  <metadata
     id="metadata5">
    <rdf:RDF>
      <cc:Work
         rdf:about="">
        <dc:format>image/svg+xml</dc:format>
        <dc:type
           rdf:resource="http://purl.org/dc/dcmitype/StillImage" />
        <dc:title></dc:title>
      </cc:Work>
    </rdf:RDF>
  </metadata>
  <g
     inkscape:label="Capa 1"
     inkscape:groupmode="layer"
     id="layer1"
     transform="translate(60.319323,-5.0012982)">
    <path
       d="m 38.265743,267.31248 c -1.514442,-0.38514 -1.661996,-2.09887 -1.661996,-19.30204 0,-10.38368 0.156114,-18.87939 0.346938,-18.87939 0.190812,0 6.658924,-0.83183 14.373581,-1.84851 12.862742,-1.69513 19.335322,-1.84849 78.004244,-1.84849 h 63.97755 V 136.2438 47.053527 l -63.86805,-0.0025 C 71.285778,47.048527 64.295018,46.88388 51.324266,45.221397 43.489152,44.217073 36.963083,43.386907 36.821899,43.37654 c -0.14117,-0.01119 -0.14117,-8.649088 0,-19.197094 L 37.078601,5.0012982 h 93.071689 93.07167 l 0.24068,130.2208618 c 0.1766,95.47214 -0.0446,130.55544 -0.82857,131.47475 -0.8878,1.04106 -16.48391,1.23569 -91.88783,1.14666 -49.950222,-0.0589 -91.566459,-0.29741 -92.480561,-0.52991 z M 212.77515,85.872095 V 18.863881 h -31.81532 c -31.18218,0 -31.81534,0.03684 -31.81534,1.848498 0,1.798003 0.79142,1.861121 28.96621,2.310629 l 28.96619,0.462131 0.491,64.697566 c 0.27004,35.583705 0.59056,64.830515 0.71227,64.992965 0.12167,0.16242 1.18286,0.16242 2.35814,0 l 2.13685,-0.29535 z M -59.318946,237.07778 c -0.967101,-0.94117 -1.43375,-201.258538 -0.471028,-202.19545 0.262236,-0.255182 9.343854,0.662944 20.181359,2.040345 10.837504,1.377426 38.2951496,4.861271 61.016988,7.741928 22.721829,2.880644 42.274015,5.436342 43.449285,5.679343 l 2.13685,0.441797 v 85.458057 85.45801 l -2.13685,0.44343 c -1.89151,0.3925 -11.37898,1.61655 -50.572124,6.52473 -5.7457424,0.71953 -15.5752574,1.97928 -21.8433494,2.79941 -42.8695186,5.60932 -50.8695036,6.47611 -51.7611306,5.6084 z"
       id="path8"
       inkscape:connector-curvature="0"
       style="stroke-width:2.65576434" />
    <g
       transform="matrix(0.43190766,0,0,0.5290637,84.569226,61.050113)"
       id="layer1-3"
       inkscape:label="Capa 1">
      <path
         inkscape:connector-curvature="0"
         id="path21"
         d="m -10.457332,296.33795 c -4.752287,-0.59112 -8.296871,-2.33676 -11.907382,-5.86417 -1.866117,-1.82316 -4.206081,-6.05713 -4.819872,-8.72116 -0.508631,-2.2076 -0.510346,-274.358126 -0.0018,-276.5653367 1.09855,-4.76742149 5.246649,-10.1159629 9.517556,-12.2718889 4.727536,-2.3864299 -5.520506,-2.2026415 122.49878,-2.1968933 102.2429,0.00459 116.40917,0.06885 118.42793,0.537198 2.2377,0.5191421 5.35043,1.8387657 5.58564,2.3680043 0.0647,0.1455209 0.33461,0.2645834 0.59984,0.2645834 0.26523,0 0.60919,0.2064032 0.76435,0.4586743 0.15516,0.2522707 0.78855,0.8119385 1.40752,1.2437061 1.42648,0.9950468 4.02796,4.89272283 5.10342,7.6462311 l 0.82673,2.1166668 0.0962,136.5250049 c 0.0654,92.82867 -0.0207,137.28977 -0.26905,138.91444 -1.07163,7.01018 -6.31126,12.7825 -13.5855,14.96668 -2.01918,0.60628 -7.43754,0.63727 -117.65138,0.67273 -63.544092,0.0205 -116.0109657,-0.022 -116.593049,-0.0945 z m 232.127772,-8.65301 c 0.77611,-0.22668 1.66173,-0.62177 1.96805,-0.878 0.30633,-0.25622 0.70983,-0.46586 0.89669,-0.46586 0.66498,0 3.2503,-3.02563 3.98089,-4.65888 l 0.74267,-1.66027 -0.09,-136.80502 -0.09,-136.8050115 -0.80838,-1.5139424 c -0.9581,-1.7943655 -3.02642,-3.94036922 -4.69628,-4.8726939 -1.16856,-0.6524343 -4.07808,-0.67115622 -118.06062,-0.75972108 l -116.862533,-0.090798 -2.023575,1.05203277 C -16.121362,1.6557976 -16.350576,1.870089 -17.72496,4.2957256 l -1.199038,2.1161729 -0.09384,136.5250015 -0.09384,136.52501 0.740322,1.99133 c 1.194456,3.21287 4.145216,5.80152 7.208467,6.32386 0.776111,0.13234 53.163609,0.25847 116.416669,0.28029 86.77238,0.0299 115.35197,-0.0615 116.41666,-0.37245 z M 11.49151,258.68563 C 9.7938795,258.2192 8.9398503,257.48379 8.578814,256.17748 8.4714003,255.78883 8.4305733,249.46533 8.4880902,242.12526 l 0.1045774,-13.34557 1.1520946,-1.02903 1.1520908,-1.02903 h 17.404291 c 11.50075,0 17.773241,0.12862 18.49199,0.37917 2.203542,0.76816 2.192588,0.69073 2.192588,15.50094 0,14.85559 -0.02413,15.03056 -2.194144,15.90918 -1.692423,0.68525 -32.880087,0.83961 -35.300068,0.17471 z m 29.380323,-15.91261 v -7.9375 H 28.701 16.530167 v 7.9375 7.9375 H 28.701 40.871833 Z m 47.131226,16.0105 c -1.479444,-0.34714 -2.907608,-1.62573 -3.224004,-2.88635 -0.107759,-0.42934 -0.148777,-6.67798 -0.09116,-13.88586 l 0.104768,-13.10525 1.143318,-1.09222 1.143317,-1.09221 H 105.056 123.0327 l 0.88558,0.82072 c 0.48706,0.4514 1.05087,1.25549 1.25289,1.78686 0.47361,1.24568 0.49959,25.57361 0.0286,26.81231 -0.52792,1.38856 -1.6381,2.29431 -3.27499,2.67197 -1.89968,0.4383 -32.03958,0.41166 -33.921758,-0.03 z m 29.068771,-16.0105 v -7.9375 H 105.07739 93.082943 v 7.9375 7.9375 h 11.994447 11.99444 z m 46.93224,15.86636 c -2.929,-0.91256 -2.8183,-0.29043 -2.82717,-15.88758 l -0.008,-13.77956 1.1002,-1.1253 1.10019,-1.12531 h 17.87494 17.87493 l 1.2214,1.01957 1.2214,1.01958 v 14.01204 14.01204 l -1.17552,0.98148 c -0.64654,0.53981 -1.65857,1.07808 -2.24896,1.19616 -0.59039,0.11808 -8.15766,0.20407 -16.81615,0.19109 -12.40096,-0.0186 -16.07697,-0.12774 -17.31741,-0.51421 z m 29.26776,-15.86636 v -7.9375 h -11.99445 -11.99444 v 7.9375 7.9375 h 11.99444 11.99445 z M 10.449185,206.06106 c -1.9921075,-1.0809 -2.0329063,-1.39458 -2.0329063,-15.62943 0,-14.81891 -0.019015,-14.70826 2.7050543,-15.74859 1.291272,-0.49314 3.573914,-0.54989 18.346656,-0.45606 13.237153,0.0841 17.049333,0.20826 17.695516,0.57652 1.717135,0.97857 1.822217,1.88596 1.822217,15.73511 0,14.06682 -0.08455,14.71633 -2.035464,15.63701 -0.700229,0.33046 -5.166438,0.43422 -18.231393,0.42355 -14.617576,-0.0119 -17.453899,-0.0955 -18.26968,-0.53811 z m 30.422648,-15.49915 v -7.9375 H 28.701 16.530167 v 7.9375 7.9375 H 28.701 40.871833 Z m 45.14223,15.03202 -1.221398,-1.01936 -0.100718,-13.35613 c -0.105875,-14.04016 -0.08009,-14.31335 1.486281,-15.74739 0.376654,-0.34483 1.092112,-0.74171 1.58991,-0.88194 0.497794,-0.14024 8.461441,-0.25498 17.696992,-0.25498 18.07918,0 17.77539,-0.0297 19.19142,1.8738 0.67114,0.90215 0.71048,1.58518 0.80642,14.00071 0.10797,13.97049 0.10435,14.00402 -1.68612,15.61048 l -0.88419,0.79332 -17.8286,3.5e-4 -17.828603,3.5e-4 -1.221394,-1.01936 z m 31.057767,-15.03202 v -7.9375 H 105.07739 93.082943 v 7.9375 7.9375 h 11.994447 11.99444 z m 45.23363,14.89721 -1.13641,-1.17247 v -13.77822 -13.77822 l 0.91452,-0.98678 c 0.55791,-0.60199 1.48647,-1.09757 2.38125,-1.27088 1.70194,-0.32964 32.07366,-0.41995 33.67281,-0.10012 0.59039,0.11807 1.60242,0.65626 2.24896,1.19596 l 1.17552,0.98127 v 13.97003 13.97002 l -1.04963,0.9736 -1.04962,0.9736 -18.0105,0.0973 -18.0105,0.0973 z m 30.96637,-14.89721 v -7.9375 h -11.99445 -11.99444 v 7.9375 7.9375 h 11.99444 11.99445 z M 10.498994,153.96285 c -1.89593,-0.75405 -1.8994543,-0.78125 -1.9930286,-15.3833 -0.084455,-13.17847 -0.067797,-13.55614 0.6418933,-14.55281 0.4007273,-0.56277 1.0121233,-1.17495 1.3586563,-1.36041 0.371588,-0.19887 7.778475,-0.36248 18.055329,-0.39883 18.318641,-0.0648 19.081915,-0.006 19.558927,1.49655 0.113817,0.35861 0.354993,0.65202 0.535947,0.65202 0.515373,0 0.428357,26.30988 -0.09177,27.74828 -0.813238,2.24896 -0.750605,2.24204 -19.917258,2.2003 -10.934403,-0.0238 -17.567546,-0.17066 -18.148691,-0.4018 z m 30.358157,-14.73946 c 0.02127,-3.85232 -0.06332,-7.41054 -0.18796,-7.90716 l -0.226625,-0.90294 H 28.475004 16.507441 l 0.03614,7.72709 c 0.01986,4.24991 0.136638,7.82759 0.259465,7.95042 0.12283,0.12283 5.576555,0.20386 12.119387,0.18007 l 11.896058,-0.0433 z m 45.222494,13.94969 c -0.605219,-0.6893 -1.189609,-1.60874 -1.29865,-2.04318 -0.109036,-0.43444 -0.151017,-6.5905 -0.09329,-13.68013 l 0.104958,-12.89024 0.958356,-0.95792 c 0.527093,-0.52686 1.370867,-1.11477 1.87505,-1.30646 1.227123,-0.46655 33.077001,-0.46285 34.757671,0.004 0.73856,0.20518 1.60953,0.82131 2.11666,1.49734 l 0.86171,1.14873 0.11324,12.52361 c 0.11965,13.23145 -0.0128,14.684 -1.464,16.05139 -0.72567,0.68377 -1.30576,0.70865 -18.79005,0.80584 l -18.041259,0.10028 z m 30.992185,-14.82229 v -7.9375 H 105.07739 93.082943 v 7.9375 7.9375 h 11.994447 11.99444 z m 46.21389,15.66061 c -2.13171,-0.83643 -2.10024,-0.6026 -2.10882,-15.6703 -0.009,-15.1866 -0.0744,-14.72196 2.23812,-15.81932 1.06725,-0.50644 3.20117,-0.57515 17.86236,-0.57515 17.87344,0 17.99231,0.011 19.63529,1.82549 0.60208,0.66492 0.65691,1.67274 0.75197,13.82155 0.0564,7.20739 0.0109,13.47254 -0.10106,13.92256 -0.11197,0.45002 -0.67952,1.28345 -1.26122,1.85208 l -1.05764,1.03387 -17.53853,-0.0224 c -10.57383,-0.0135 -17.88875,-0.15978 -18.42047,-0.36842 z m 29.98611,-15.66061 v -7.9375 h -11.99445 -11.99444 v 7.9375 7.9375 h 11.99444 11.99445 z M 13.572574,90.74173 C 11.73306,89.840647 10.198082,88.368653 9.2049593,86.553326 8.6381689,85.517292 8.5926676,83.334331 8.5926676,57.177191 c 0,-29.765655 -0.029845,-29.15415 1.5016164,-30.772662 0.243805,-0.257662 0.603913,-0.768619 0.800237,-1.135458 0.196325,-0.36684 1.1081,-1.108523 2.026162,-1.648185 L 14.58989,22.639677 H 104.901 c 87.17525,0 90.35846,0.02268 91.6748,0.653263 1.49365,0.715515 3.39881,2.381155 3.39881,2.971504 0,0.205359 0.16446,0.428205 0.36548,0.495208 0.20102,0.06701 0.59093,0.754924 0.86646,1.528707 0.41574,1.167496 0.50356,6.028732 0.51617,28.570764 0.014,25.036425 -0.0331,27.290498 -0.60187,28.780459 -0.91666,2.401401 -2.48988,4.152734 -4.59588,5.116227 l -1.86215,0.851927 -89.68369,-0.01103 -89.683685,-0.01103 z M 193.62461,57.035512 V 30.929955 H 105.25378 16.882945 v 26.105557 26.105557 h 88.370835 88.37083 z"
          />
    </g>
  </g>
</svg>
