<?xml version="1.0" encoding="UTF-8" standalone="no"?>
<!-- Created with Inkscape (http://www.inkscape.org/) -->

<svg
   xmlns:dc="http://purl.org/dc/elements/1.1/"
   xmlns:cc="http://creativecommons.org/ns#"
   xmlns:rdf="http://www.w3.org/1999/02/22-rdf-syntax-ns#"
   xmlns:svg="http://www.w3.org/2000/svg"
   xmlns="http://www.w3.org/2000/svg"
   xmlns:xlink="http://www.w3.org/1999/xlink"
   xmlns:sodipodi="http://sodipodi.sourceforge.net/DTD/sodipodi-0.dtd"
   xmlns:inkscape="http://www.inkscape.org/namespaces/inkscape"
   width="138.34894mm"
   height="138.34894mm"
   viewBox="0 0 138.34894 138.34894"
   version="1.1"
   id="svg1964"
   inkscape:version="0.92.3 (2405546, 2018-03-11)"
   sodipodi:docname="dibujo.svg">

	<style type="text/css">
	<![CDATA[
		path {
			fill:#007aff;
		}
	]]> 
  </style>

  <defs
     id="defs1958" />
  <sodipodi:namedview
     id="base"
     pagecolor="#ffffff"
     bordercolor="#666666"
     borderopacity="1.0"
     inkscape:pageopacity="0.0"
     inkscape:pageshadow="2"
     inkscape:zoom="0.35"
     inkscape:cx="-294.26748"
     inkscape:cy="218.58967"
     inkscape:document-units="mm"
     inkscape:current-layer="layer1"
     showgrid="false"
     inkscape:window-width="1280"
     inkscape:window-height="981"
     inkscape:window-x="0"
     inkscape:window-y="19"
     inkscape:window-maximized="1" />
  <metadata
     id="metadata1961">
    <rdf:RDF>
      <cc:Work
         rdf:about="">
        <dc:format>image/svg+xml</dc:format>
        <dc:type
           rdf:resource="http://purl.org/dc/dcmitype/StillImage" />
        <dc:title></dc:title>
      </cc:Work>
    </rdf:RDF>
  </metadata>
  <g
     inkscape:label="Capa 1"
     inkscape:groupmode="layer"
     id="layer1"
     transform="translate(-37.414818,-68.31958)">
   
    <path
       
       d="m 48.922989,206.09546 c -1.524147,-0.35651 -2.678154,-1.1542 -3.568368,-2.46657 l -0.779165,-1.14867 -0.0717,-24.96077 -0.0717,-24.96078 -1.569276,-1.52008 c -0.933418,-0.90415 -1.889756,-2.177 -2.360211,-3.14135 l -0.790935,-1.62127 v -19.86064 -19.86064 l 0.724185,-1.5451 c 2.397792,-5.115837 8.556954,-7.603753 13.603754,-5.495067 2.056136,0.859107 3.726948,2.429347 6.045819,5.681907 3.128146,4.38768 4.602116,6.10321 6.495813,7.56038 3.795795,2.9208 7.832526,4.03198 12.311281,3.38891 4.37636,-0.62836 5.374132,-0.63728 6.679854,-0.0597 1.730229,0.76536 3.18623,2.94507 3.181404,4.76271 -0.0048,1.82666 -1.37381,4.06521 -3.000437,4.90637 -2.174959,1.12472 -8.851538,1.76858 -12.690729,1.22384 -4.076857,-0.57846 -7.569147,-1.8224 -10.709645,-3.81473 l -1.29449,-0.82122 -0.135107,11.83785 -0.135106,11.83785 -0.87201,1.77052 c -0.775239,1.57403 -3.085037,4.29633 -3.645324,4.29633 -0.116264,0 -0.212068,11.03481 -0.212897,24.52181 -9.99e-4,16.45391 -0.09583,24.86148 -0.288194,25.55423 -0.757641,2.72843 -4.010417,4.59733 -6.846809,3.93388 z m 112.565161,-0.0173 c -1.5429,-0.34381 -3.65543,-2.3514 -4.07037,-3.86819 -0.20395,-0.74549 -0.29616,-8.68944 -0.2972,-25.60266 -8.1e-4,-13.487 -0.0966,-24.52181 -0.21289,-24.52181 -0.56029,0 -2.87009,-2.7223 -3.64533,-4.29634 l -0.87201,-1.7705 -0.1351,-11.83785 -0.13511,-11.83785 -1.29449,0.82122 c -5.7783,3.66575 -13.49279,4.93625 -20.6708,3.40427 -2.41491,-0.5154 -3.24784,-0.93106 -4.3256,-2.15856 -1.76002,-2.00454 -1.81176,-4.59083 -0.13699,-6.84656 1.32208,-1.78068 3.79776,-2.37912 6.83745,-1.65278 1.62382,0.38801 6.19195,0.35945 7.92765,-0.0496 3.05022,-0.71878 6.74653,-3.13163 9.06467,-5.91716 0.71591,-0.86025 2.32293,-2.99659 3.57116,-4.74741 2.31887,-3.25256 3.98968,-4.8228 6.04582,-5.681907 5.0468,-2.108686 11.20596,0.37923 13.60375,5.495067 l 0.72419,1.5451 v 19.86064 19.86064 l -0.79093,1.62127 c -0.47046,0.96435 -1.4268,2.2372 -2.36022,3.14135 l -1.56927,1.52008 -0.0717,24.96078 -0.0717,24.96077 -0.87279,1.25679 c -1.36248,1.96193 -3.81546,2.88195 -6.24218,2.34119 z M 77.741605,138.30615 c -1.490616,-0.90884 -1.954409,-1.98262 -1.955563,-4.52753 l -10e-4,-2.22925 1.283511,-0.002 c 2.174213,-0.004 6.046367,-0.52394 8.173936,-1.09809 4.842502,-1.30679 7.63892,-4.79469 7.67521,-9.5731 0.01427,-1.87771 -0.09437,-2.39683 -0.826848,-3.95143 -1.092241,-2.31813 -2.474006,-3.82297 -4.355617,-4.74356 -1.391279,-0.68069 -1.718615,-0.73175 -4.096574,-0.63903 -1.421457,0.0554 -3.739629,0.11113 -5.15149,0.12378 l -2.567022,0.023 -0.07416,-4.20609 c -0.07042,-3.99397 -0.04317,-4.25163 0.540425,-5.1092 1.369911,-2.01303 1.452383,-2.03365 8.132167,-2.03365 h 5.99306 l 0.07662,3.23221 c 0.05143,2.16936 0.18471,3.30089 0.405319,3.44108 0.180784,0.11487 1.505569,0.21072 2.943969,0.213 3.488241,0.005 3.464514,0.0325 3.464514,-3.95219 v -3.10704 l 5.925618,0.0864 c 6.58254,0.096 6.70965,0.12932 8.05789,2.11029 l 0.60798,0.89331 -0.001,16.37546 c -10e-4,15.86355 -0.0178,16.403 -0.53795,17.25613 -0.29532,0.48437 -0.93325,1.12229 -1.41761,1.41761 -0.85132,0.51906 -1.38924,0.53694 -16.147685,0.53694 -14.758443,0 -15.296358,-0.0179 -16.147683,-0.53694 z M 47.862661,93.977135 c -0.718527,-0.120618 -2.177676,-0.635879 -3.242553,-1.145025 -7.502831,-3.587296 -9.46202,-13.627478 -3.86811,-19.822758 2.532743,-2.805025 5.598956,-4.172257 9.406973,-4.194593 3.633455,-0.02131 6.476152,1.139247 9.019,3.682094 2.524126,2.524126 3.721285,5.507368 3.685947,9.185139 -0.05896,6.136622 -4.529584,11.327803 -10.587397,12.293841 -1.972832,0.314608 -2.546487,0.314777 -4.41386,0.0013 z m 112.769179,-0.02581 c -5.79409,-0.957145 -10.25951,-6.267484 -10.31718,-12.269332 -0.0353,-3.677771 1.16182,-6.661013 3.68595,-9.185139 2.54284,-2.542847 5.38554,-3.703406 9.01899,-3.682094 3.80802,0.02234 6.87423,1.389568 9.40698,4.194593 5.58292,6.183113 3.63417,16.235462 -3.84029,19.809544 -2.76273,1.321065 -4.93793,1.630735 -7.95445,1.132428 z"
       id="path2520"
       inkscape:connector-curvature="0" />
  </g>
</svg>
