<?xml version="1.0" encoding="UTF-8" standalone="no"?>
<!-- Created with Inkscape (http://www.inkscape.org/) -->

<svg
   xmlns:dc="http://purl.org/dc/elements/1.1/"
   xmlns:cc="http://creativecommons.org/ns#"
   xmlns:rdf="http://www.w3.org/1999/02/22-rdf-syntax-ns#"
   xmlns:svg="http://www.w3.org/2000/svg"
   xmlns="http://www.w3.org/2000/svg"
   xmlns:xlink="http://www.w3.org/1999/xlink"
   xmlns:sodipodi="http://sodipodi.sourceforge.net/DTD/sodipodi-0.dtd"
   xmlns:inkscape="http://www.inkscape.org/namespaces/inkscape"
   width="135.46666mm"
   height="135.46666mm"
   viewBox="0 0 135.46666 135.46666"
   version="1.1"
   id="svg8"
   inkscape:version="0.92.3 (2405546, 2018-03-11)"
   sodipodi:docname="dibujo.svg">
	<style type="text/css">
	<![CDATA[
		path {
			fill:#007aff;
		}
	]]> 
  </style>
  <defs
     id="defs2" />
  <sodipodi:namedview
     id="base"
     pagecolor="#ffffff"
     bordercolor="#666666"
     borderopacity="1.0"
     inkscape:pageopacity="0.0"
     inkscape:pageshadow="2"
     inkscape:zoom="0.35"
     inkscape:cx="218.8571"
     inkscape:cy="224.57143"
     inkscape:document-units="mm"
     inkscape:current-layer="layer1"
     showgrid="false"
     inkscape:window-width="1280"
     inkscape:window-height="981"
     inkscape:window-x="0"
     inkscape:window-y="19"
     inkscape:window-maximized="1" />
  <metadata
     id="metadata5">
    <rdf:RDF>
      <cc:Work
         rdf:about="">
        <dc:format>image/svg+xml</dc:format>
        <dc:type
           rdf:resource="http://purl.org/dc/dcmitype/StillImage" />
        <dc:title></dc:title>
      </cc:Work>
    </rdf:RDF>
  </metadata>
  <g
     inkscape:label="Capa 1"
     inkscape:groupmode="layer"
     id="layer1"
     transform="translate(-49.439297,-72.784531)">
    
    <path
       d="m 77.485264,207.95394 c -0.363728,-0.14503 -0.940586,-0.52444 -1.281909,-0.84312 -1.297231,-1.21118 -1.364059,-1.60836 -1.364059,-8.10691 0,-5.74577 0.03061,-6.12916 0.529166,-6.62772 0.668452,-0.66845 1.87265,-0.67915 2.682669,-0.0238 0.616585,0.49883 0.625663,0.57883 0.70535,6.21771 l 0.08073,5.71238 h 2.763544 2.763543 V 191.18557 178.08869 H 81.58617 78.808046 v 4.08629 c 0,3.89943 -0.02823,4.11911 -0.617366,4.80402 -0.782013,0.90914 -2.188358,0.95401 -2.886302,0.0921 -0.400109,-0.49411 -0.465082,-1.16167 -0.465082,-4.77837 v -4.20403 h -3.185541 c -5.547925,0 -6.324112,-0.84309 -6.333237,-6.87916 -0.0044,-2.88083 0.0841,-3.75002 0.45721,-4.49265 0.516862,-1.02874 1.968069,-2.12194 2.816841,-2.12193 l 0.556185,1e-5 -0.06847,-43.66223 c -0.06667,-42.512677 -0.05518,-43.688293 0.436422,-44.651914 0.598742,-1.173631 1.6952,-2.318614 2.801553,-2.92554 0.660623,-0.362405 1.810245,-0.452983 6.628141,-0.522222 5.620102,-0.08077 5.854668,-0.0635 6.548438,0.482224 0.986636,0.776088 0.997079,2.122954 0.02241,2.889633 -0.65178,0.512687 -1.036839,0.54837 -5.917448,0.54837 -4.88061,0 -5.265668,0.03568 -5.917444,0.54837 l -0.697139,0.54837 v 7.653713 7.653713 h 3.684963 c 3.665786,0 3.687817,0.0036 4.233333,0.697139 0.691782,0.879458 0.691782,1.43043 0,2.309887 -0.545516,0.693512 -0.567547,0.69714 -4.233333,0.69714 h -3.684963 v 3.439587 3.43958 h 3.5839 c 3.494738,0 3.600796,0.0169 4.2629,0.679 0.549767,0.54976 0.647068,0.83864 0.511233,1.51781 -0.30408,1.5204 -0.603345,1.63117 -4.662561,1.72579 l -3.695472,0.0861 v 3.26729 3.2673 l 3.695472,0.0861 c 4.059216,0.0946 4.358481,0.20539 4.662561,1.72579 0.135835,0.67917 0.03853,0.96805 -0.511233,1.51781 -0.662104,0.66211 -0.768162,0.679 -4.2629,0.679 h -3.5839 v 3.43959 3.43958 h 3.684963 c 3.665786,0 3.687817,0.004 4.233333,0.69714 0.691782,0.87945 0.691782,1.43043 0,2.30988 -0.545516,0.69352 -0.567547,0.69714 -4.233333,0.69714 h -3.684963 v 3.43959 3.43958 h 3.456976 c 1.901338,0 3.684548,0.12179 3.962686,0.27065 1.2989,0.69515 1.287065,2.6298 -0.02021,3.30582 -0.552125,0.28551 -1.662314,0.39228 -4.079018,0.39228 h -3.32043 v 3.30729 3.30729 h 3.542564 c 3.965493,0 4.518268,0.20279 4.820578,1.7684 0.131202,0.67947 0.03135,0.97366 -0.516342,1.52136 -0.662104,0.6621 -0.768162,0.67899 -4.2629,0.67899 h -3.5839 v 6.45298 c 0,5.95929 0.0387,6.50077 0.505776,7.07761 l 0.505778,0.62462 h 27.562955 27.56295 l 0.63856,-0.74236 c 0.63658,-0.74005 0.63856,-0.76202 0.63856,-7.0776 v -6.33525 h -3.31931 c -3.17144,0 -3.34826,-0.0289 -3.96875,-0.64943 -0.82769,-0.82769 -0.82769,-1.84219 0,-2.66988 0.62049,-0.6205 0.79731,-0.64944 3.96875,-0.64944 h 3.31931 v -3.28626 -3.28627 l -3.46356,-0.0872 c -3.26887,-0.0823 -3.49196,-0.12228 -3.96875,-0.71179 -0.65466,-0.80944 -0.6403,-1.6458 0.0432,-2.5147 0.54201,-0.68905 0.58817,-0.69714 3.97666,-0.69714 h 3.42828 l -0.074,-3.37344 -0.074,-3.37343 -3.41196,-0.1323 c -3.31856,-0.12866 -3.42633,-0.15157 -3.93706,-0.83686 -0.34617,-0.46447 -0.46909,-0.91528 -0.3607,-1.32292 0.36246,-1.36313 0.4747,-1.40446 4.19359,-1.54438 l 3.51613,-0.13229 0.074,-3.37344 0.074,-3.37344 h -3.32722 c -3.17983,0 -3.35599,-0.0288 -3.97665,-0.64943 -0.35719,-0.35719 -0.64944,-0.95791 -0.64944,-1.33494 0,-0.37703 0.29225,-0.97776 0.64944,-1.33494 0.62049,-0.62051 0.79731,-0.64944 3.96875,-0.64944 h 3.31931 v -3.28626 -3.28627 l -3.46356,-0.0872 c -3.26887,-0.0823 -3.49196,-0.12228 -3.96875,-0.7118 -0.65466,-0.80943 -0.6403,-1.64579 0.0432,-2.51469 0.54201,-0.68905 0.58817,-0.69714 3.97666,-0.69714 h 3.42828 l -0.074,-3.37344 -0.074,-3.373435 -3.41196,-0.132292 c -3.31856,-0.12867 -3.42633,-0.151578 -3.93706,-0.836863 -0.34617,-0.464477 -0.46909,-0.915283 -0.3607,-1.322916 0.36246,-1.363132 0.4747,-1.404467 4.19359,-1.544387 l 3.51613,-0.132292 0.0703,-7.482372 0.0703,-7.482371 -0.65356,-0.653566 -0.65357,-0.653565 h -18.68255 c -11.680471,0 -18.863921,-0.09707 -19.166485,-0.258998 -1.143482,-0.611974 -1.063715,-3.085903 0.114075,-3.537863 0.246364,-0.09454 8.9214,-0.169274 19.27786,-0.166078 18.38137,0.0057 18.85828,0.01867 20.02055,0.545588 1.48114,0.671486 2.27047,1.396035 3.00231,2.755893 l 0.56956,1.058333 0.07,34.594264 0.07,34.59427 h 5.28781 5.28782 v -3.30729 -3.30729 h -1.41953 c -1.84521,0 -2.81381,-0.68969 -2.81381,-2.00358 0,-1.41761 0.73722,-1.96517 2.64584,-1.96517 h 1.5875 v -1.73182 c 0,-1.48594 0.0922,-1.82402 0.64943,-2.38125 0.82769,-0.82769 1.84219,-0.82769 2.66988,0 0.55723,0.55723 0.64944,0.89531 0.64944,2.38125 v 1.73182 h 1.5875 c 1.90861,0 2.64583,0.54756 2.64583,1.96517 0,1.31389 -0.9686,2.00358 -2.81381,2.00358 h -1.41952 v 3.28378 3.28377 l 5.35781,0.0897 5.35781,0.0897 1.7729,0.83989 c 3.0226,1.43192 5.05574,3.97628 5.73482,7.17677 0.47192,2.22422 0.38259,6.09884 -0.16594,7.19688 -0.74492,1.49115 -1.80203,1.85119 -5.43669,1.85167 -3.39461,5.3e-4 -4.20225,-0.23071 -5.18902,-1.48519 -0.39834,-0.50641 -0.55253,-1.0838 -0.55253,-2.06904 0,-0.75164 -0.14287,-1.50948 -0.3175,-1.68411 -0.23617,-0.23617 -2.98097,-0.3175 -10.71562,-0.3175 h -10.39813 v 2.48047 c 0,1.36426 -0.0744,2.85254 -0.16536,3.30729 -0.14613,0.73066 -0.0959,0.82682 0.43179,0.82682 0.91981,0 2.27668,0.96892 2.74811,1.96239 0.33144,0.69846 0.42505,1.76683 0.42505,4.85149 0,3.67216 -0.0431,4.02024 -0.60059,4.85481 -0.99914,1.49562 -1.9987,1.82418 -5.55098,1.82465 l -3.10885,4.1e-4 v 13.31985 13.31984 l -0.60927,1.15214 c -1.01249,1.91465 -2.21049,2.37067 -6.22798,2.37067 -2.76853,0 -3.4916,-0.0865 -4.39015,-0.52524 -1.746,-0.85251 -2.29713,-1.93962 -2.49451,-4.9204 l -0.16871,-2.54803 -6.21771,-3.69479 c -3.41974,-2.03213 -6.36616,-3.75849 -6.5476,-3.83635 -0.18144,-0.0779 -3.296309,1.61778 -6.921931,3.7681 l -6.592046,3.90968 -0.08953,2.53445 c -0.07577,2.14503 -0.184422,2.6675 -0.70712,3.40034 -1.120645,1.57118 -2.216869,1.91448 -6.052594,1.89547 -1.861188,-0.009 -3.681574,-0.13544 -4.045302,-0.28048 z m 47.032046,-16.83452 0.0686,-13.03073 h -2.91291 -2.91291 v 12.92049 c 0,7.10627 0.0833,13.00376 0.18506,13.10554 0.10178,0.10179 1.3817,0.1514 2.84427,0.11025 l 2.65921,-0.0748 z m -30.436161,1.31729 c 1.924532,-1.12469 3.500472,-2.10442 3.502091,-2.17718 0.0016,-0.0728 -1.572998,-1.05713 -3.499148,-2.18748 -1.926148,-1.13035 -4.008104,-2.35749 -4.626568,-2.72698 l -1.124479,-0.67179 v 5.58625 5.58624 l 1.124479,-0.68208 c 0.618464,-0.37515 2.699097,-1.60229 4.623625,-2.72698 z m 20.710231,-2.28996 v -5.40444 l -4.43177,2.62995 c -2.43748,1.44648 -4.46275,2.72124 -4.50061,2.83281 -0.0653,0.19243 8.31568,5.31195 8.73394,5.33513 0.10914,0.006 0.19844,-2.42101 0.19844,-5.39345 z m -6.28386,-6.28404 6.28386,-3.72048 v -1.02677 -1.02677 H 101.56221 88.333045 l 0.0055,0.99219 0.0055,0.99219 6.542931,3.89001 c 3.637796,2.1628 6.719144,3.83009 6.939804,3.75506 0.21828,-0.0742 3.22461,-1.80916 6.68073,-3.85543 z m 25.33386,-12.52089 v -2.77813 H 101.56221 69.283046 v 2.77813 2.77812 h 32.279164 32.27917 z m 29.63333,-13.7112 c 0,-2.48474 -0.56761,-4.12436 -1.88321,-5.43996 -1.86552,-1.86553 -2.00982,-1.88322 -15.36184,-1.88322 h -11.85912 v 1.85209 1.85208 l 10.3849,0.002 c 6.7605,0.001 10.75218,0.10344 11.43726,0.29363 1.87064,0.51933 3.57,2.79922 3.57637,4.79812 0.001,0.39674 0.26662,0.46302 1.85355,0.46302 h 1.85209 v -1.93724 z m -3.96673,29.8994 c -0.50821,-0.16183 -1.53976,-0.89382 -2.29232,-1.62664 -1.78531,-1.73845 -2.44952,-3.72634 -1.98629,-5.9447 0.31261,-1.49705 1.93194,-4.94226 3.17792,-6.76123 2.06514,-3.01481 5.15928,-3.01481 7.22442,0 1.24598,1.81897 2.86531,5.26418 3.17792,6.76123 0.46317,2.21808 -0.20115,4.20701 -1.98426,5.94077 -0.8339,0.81082 -1.79064,1.45518 -2.45532,1.65365 -1.31096,0.39144 -3.59434,0.3806 -4.86207,-0.0231 z m 4.17395,-4.03343 c 0.68609,-0.48055 1.38028,-1.71649 1.38028,-2.45745 0,-0.51875 -2.02607,-4.75954 -2.72787,-5.70973 -0.3528,-0.47767 -0.44679,-0.38453 -1.46839,1.4552 -2.15637,3.88324 -2.29163,4.91107 -0.83763,6.36507 0.60408,0.60407 0.99604,0.75985 1.91196,0.75985 0.63365,0 1.4174,-0.18583 1.74165,-0.41294 z M 98.72179,139.31623 c -2.237547,-0.6026 -4.046161,-1.66721 -5.783035,-3.40408 -3.246699,-3.2467 -4.47613,-7.43917 -3.399694,-11.59327 0.600361,-2.31686 2.156489,-5.78079 4.207004,-9.36474 4.477631,-7.82614 5.359815,-8.71819 8.428575,-8.52279 2.56374,0.16325 3.25311,0.7346 5.76505,4.77805 4.02553,6.47989 6.43538,11.85753 6.77104,15.10978 0.34391,3.33216 -1.36949,7.49244 -4.12345,10.0121 -3.21344,2.94005 -7.77305,4.0871 -11.86549,2.98495 z m 6.84803,-4.30939 c 2.81699,-1.36368 4.85641,-4.21117 5.16457,-7.21091 0.2491,-2.42476 -1.2872,-6.25593 -5.11482,-12.7552 -2.35477,-3.99838 -2.89149,-4.68537 -3.66048,-4.68537 -0.76594,0 -1.36167,0.74385 -3.544256,4.42552 -2.139029,3.6082 -4.056549,7.47616 -4.791845,9.66597 -1.532514,4.56404 0.9823,9.40605 5.690264,10.956 1.569337,0.51666 4.792697,0.31264 6.256567,-0.39601 z"
       id="path21"
       inkscape:connector-curvature="0" />
  </g>
</svg>
