<?xml version="1.0" encoding="UTF-8" standalone="no"?>
<!-- Created with Inkscape (http://www.inkscape.org/) -->

<svg
   xmlns:dc="http://purl.org/dc/elements/1.1/"
   xmlns:cc="http://creativecommons.org/ns#"
   xmlns:rdf="http://www.w3.org/1999/02/22-rdf-syntax-ns#"
   xmlns:svg="http://www.w3.org/2000/svg"
   xmlns="http://www.w3.org/2000/svg"
   xmlns:xlink="http://www.w3.org/1999/xlink"
   xmlns:sodipodi="http://sodipodi.sourceforge.net/DTD/sodipodi-0.dtd"
   xmlns:inkscape="http://www.inkscape.org/namespaces/inkscape"
   width="144.49777mm"
   height="144.49777mm"
   viewBox="0 0 144.49777 144.49777"
   version="1.1"
   id="svg8"
   inkscape:version="0.92.3 (2405546, 2018-03-11)"
   sodipodi:docname="dibujo.svg">

	<style type="text/css">
	<![CDATA[
		path {
			fill:#007aff;
		}
	]]> 
  </style>

  <defs
     id="defs2" />
  <sodipodi:namedview
     id="base"
     pagecolor="#ffffff"
     bordercolor="#666666"
     borderopacity="1.0"
     inkscape:pageopacity="0.0"
     inkscape:pageshadow="2"
     inkscape:zoom="0.35"
     inkscape:cx="278.78095"
     inkscape:cy="253.06665"
     inkscape:document-units="mm"
     inkscape:current-layer="layer1"
     showgrid="false"
     inkscape:window-width="1280"
     inkscape:window-height="981"
     inkscape:window-x="0"
     inkscape:window-y="19"
     inkscape:window-maximized="1" />
  <metadata
     id="metadata5">
    <rdf:RDF>
      <cc:Work
         rdf:about="">
        <dc:format>image/svg+xml</dc:format>
        <dc:type
           rdf:resource="http://purl.org/dc/dcmitype/StillImage" />
        <dc:title></dc:title>
      </cc:Work>
    </rdf:RDF>
  </metadata>
  <g
     inkscape:label="Capa 1"
     inkscape:groupmode="layer"
     id="layer1"
     transform="translate(-33.584446,-71.292778)">
    <path  
       d="m 103.15222,215.37227 c -7.827927,-1.72615 -13.515455,-7.39816 -15.241777,-15.20018 -0.985492,-4.45387 -0.20574,-8.36313 3.048773,-15.28487 3.640012,-7.74164 12.984004,-22.68394 15.018904,-24.01725 0.79546,-0.52121 2.11679,-0.33087 2.75685,0.39713 1.28761,1.46452 5.28281,7.77335 5.28281,8.34211 0,1.05115 -1.03179,2.15467 -2.0146,2.15467 -1.30265,0 -1.73176,-0.36095 -3.3384,-2.80817 -0.82033,-1.2495 -1.53674,-2.27183 -1.59204,-2.27183 -0.21281,0 -5.20638,7.66526 -7.446119,11.43 -4.926826,8.28141 -7.625195,14.80467 -7.618828,18.41838 0.01603,9.09333 8.798657,16.22348 17.833597,14.47816 5.90475,-1.14066 10.72121,-5.92056 11.96179,-11.87098 0.5201,-2.49469 0.37158,-4.22025 -0.62915,-7.30965 -0.80525,-2.48592 -3.16898,-7.51938 -5.18781,-11.04723 -1.57974,-2.76054 -1.71595,-3.65238 -0.71127,-4.65706 0.83604,-0.83605 1.80876,-0.88514 2.75713,-0.13915 1.50272,1.18204 6.70933,11.74476 7.8653,15.95642 1.75678,6.40071 -0.17671,13.06508 -5.25378,18.10875 -1.9037,1.89117 -2.79413,2.53325 -4.96658,3.58133 -4.1882,2.02056 -8.52105,2.6223 -12.5248,1.73942 z m -61.65999,-0.50273 c -1.170163,-0.602 -1.408016,-1.48055 -1.412513,-5.21733 l -0.0042,-3.45722 h -1.536485 c -1.216705,0 -1.701287,-0.14162 -2.328333,-0.68045 -0.779366,-0.66973 -0.793337,-0.7371 -0.886276,-4.27351 -0.152764,-5.8128 0.223596,-6.61715 3.096228,-6.61715 h 1.625368 l 0.0853,-6.46897 c 0.08444,-6.4035 0.09223,-6.47633 0.7695,-7.19666 0.884853,-0.94112 2.077466,-0.95503 2.997522,-0.035 l 0.692727,0.69272 v 6.50394 6.50394 h 6.491111 6.491111 l 0.0033,-17.85055 c 0.0035,-18.87169 0.02677,-19.2505 1.33701,-21.80167 0.901897,-1.75608 3.114178,-3.80627 5.15075,-4.77335 l 1.834445,-0.87109 11.077221,-0.0799 11.077222,-0.0799 v -6.78367 -6.78366 l -11.500555,0.10397 -11.500555,0.10397 -2.54,0.77904 c -8.770049,2.68983 -14.985039,9.26796 -17.236441,18.24356 -0.334674,1.33423 -0.509994,3.84668 -0.642962,9.21403 -0.166272,6.71169 -0.231477,7.43328 -0.720448,7.97278 -0.694452,0.76622 -2.229713,0.78918 -2.974406,0.0445 -0.301787,-0.30179 -0.637161,-1.02022 -0.745276,-1.59653 -0.35599,-1.89759 0.06857,-13.32189 0.586282,-15.77588 1.309623,-6.20774 3.966657,-11.03321 8.423111,-15.29733 3.829153,-3.66389 7.899719,-5.95492 13.027918,-7.33248 2.803291,-0.75304 2.89937,-0.75887 14.322777,-0.86904 l 11.500555,-0.11092 v -1.96628 c 0,-1.71135 0.08981,-2.05608 0.692728,-2.659 0.676244,-0.67624 0.797411,-0.69273 5.092827,-0.69273 4.295417,0 4.416583,0.0165 5.092827,0.69273 0.604393,0.60439 0.692728,0.94629 0.692728,2.68111 v 1.98839 h 2.540002 2.54 v -7.90223 -7.90222 h -1.2133 c -1.13778,0 -1.23627,0.0635 -1.58219,1.02014 -0.51619,1.42747 -2.133094,3.12284 -3.818824,4.00412 -1.887976,0.98701 -4.991746,1.05677 -6.957582,0.15638 -2.806855,-1.2856 -4.764816,-4.26764 -4.769792,-7.26456 -0.0057,-3.41818 1.490537,-5.88856 4.52151,-7.46539 1.700496,-0.88467 1.970924,-0.94146 3.942399,-0.82791 1.232588,0.071 2.506808,0.3253 3.050749,0.60887 1.502418,0.78324 3.1492,2.43169 3.89038,3.89433 l 0.68838,1.35847 h 4.5976 4.5976 l 0.46925,-1.05834 c 2.17984,-4.91639 8.80834,-6.44536 12.70002,-2.92946 3.04387,2.74995 3.76066,6.54387 1.91855,10.1547 -1.31189,2.57153 -4.74773,4.44871 -7.67342,4.1924 -3.01789,-0.26439 -5.70261,-2.09846 -6.8739,-4.69592 -0.49014,-1.08694 -0.58269,-1.14783 -1.74473,-1.14783 H 109.22 v 7.90222 7.90223 h 2.54 2.54 v -1.51011 c 0,-1.97381 0.42631,-3.13413 1.29732,-3.53099 0.42252,-0.19251 2.33214,-0.32113 4.768,-0.32113 3.83348,0 4.10588,0.0367 4.81816,0.64939 0.6539,0.56247 0.77451,0.92273 0.90107,2.69153 l 0.14611,2.04214 9.65017,-0.081 9.65016,-0.081 1.3838,-0.8559 c 0.7611,-0.47075 1.76687,-1.42325 2.23506,-2.11667 l 0.85126,-1.26076 0.14111,-8.32555 c 0.14392,-8.49163 0.25191,-9.30694 1.28524,-9.70347 0.93188,-0.35759 2.08865,-0.16442 2.65487,0.44335 0.55183,0.59231 0.57544,0.95536 0.57544,8.84582 0,7.34369 -0.0575,8.39539 -0.53527,9.78396 -1.38922,4.03782 -4.52869,6.78033 -8.62957,7.53842 -0.97295,0.17986 -5.33141,0.30747 -10.50143,0.30747 h -8.83817 v 6.77333 6.77334 h 8.33668 c 4.58517,0 9.546,-0.13485 11.02407,-0.29966 8.89546,-0.99191 16.39238,-6.48486 19.99722,-14.65186 2.0019,-4.53544 1.94288,-3.84412 2.05454,-24.0657 l 0.1009,-18.273891 h -6.50448 -6.50449 v 3.778734 c 0,4.216503 -0.21843,4.820067 -1.85895,5.136487 -0.67632,0.13044 -1.05507,0.01 -1.69334,-0.53892 l -0.82215,-0.706943 -0.0983,-3.834679 -0.0982,-3.834679 h -1.48648 c -1.07648,0 -1.69157,-0.161331 -2.23008,-0.584928 l -0.74362,-0.584928 v -4.586988 c 0,-4.429819 0.0224,-4.608013 0.65319,-5.200627 0.50975,-0.478886 0.99947,-0.613639 2.23009,-0.613639 h 1.5769 l 0.0982,-3.834679 c 0.0974,-3.799557 0.1055,-3.840916 0.8901,-4.515556 l 0.79185,-0.680876 h 9.28185 9.28186 l 0.79185,0.680437 c 0.78528,0.674797 0.79261,0.712227 0.88427,4.515555 l 0.0924,3.835119 h 1.33603 c 1.59211,0 2.45775,0.659682 2.72334,2.075376 0.0979,0.521795 0.13548,2.544452 0.0836,4.494794 -0.0878,3.298329 -0.14223,3.5969 -0.77862,4.273509 -0.55187,0.586744 -0.9476,0.727431 -2.04611,0.727431 h -1.36192 v 16.380011 c 0,9.43101 -0.12488,17.54265 -0.29438,19.12055 -1.38545,12.89823 -10.87579,23.18263 -23.64878,25.62749 -1.53561,0.29392 -4.65436,0.39639 -12.065,0.39639 h -9.99406 v 1.56129 c 0,3.65133 -0.90979,4.19896 -6.71554,4.04223 -4.69092,-0.12663 -4.93124,-0.2915 -5.09296,-3.49404 l -0.107,-2.11888 -7.23614,0.0752 -7.236136,0.0753 -0.08215,2.00781 c -0.07066,1.727 -0.182383,2.10197 -0.798847,2.68111 -0.691715,0.64983 -0.869278,0.6733 -5.092846,0.6733 h -4.376143 l -0.681118,-0.79184 c -0.579942,-0.67423 -0.681121,-1.08576 -0.681121,-2.77039 V 153.382 l -10.371666,0.0899 c -11.478482,0.0995 -11.586368,0.11543 -13.581128,2.00797 -2.085419,1.97856 -1.998529,1.06211 -2.005451,21.15237 l -0.0062,17.99166 h 1.361917 c 1.058689,0 1.49854,0.14543 1.975555,0.65319 0.577622,0.61485 0.613639,0.92009 0.613639,5.20063 v 4.54744 l -0.743616,0.58492 c -0.489687,0.38519 -1.156829,0.58493 -1.953689,0.58493 h -1.210073 l -0.09242,3.80297 c -0.134592,5.53821 0.829011,5.06975 -10.612692,5.15937 -7.052676,0.0552 -9.400717,-0.0128 -9.935278,-0.28779 z m 16.081104,-6.41677 v -2.25778 h -6.491111 -6.491111 v 2.25778 2.25778 h 6.491111 6.491111 z m 4.233333,-8.04333 v -1.27 H 50.800001 39.793335 v 1.27 1.27 h 11.006666 11.006666 z m 33.30222,-57.99667 v -12.13555 h -1.27 -1.27 v 12.13555 12.13556 h 1.27 1.27 z m 26.461363,-0.0705 0.0736,-12.065 h -1.41414 -1.41414 v 12.15102 12.15101 l 1.34056,-0.086 1.34055,-0.086 z m -7.27025,0.0705 v -6.77333 h -7.33778 -7.337778 v 6.58519 c 0,3.62185 0.08467,6.66985 0.18815,6.77333 0.103479,0.10348 3.405478,0.18815 7.337778,0.18815 H 114.3 Z M 96.386084,116.16166 c 1.723697,-1.0653 2.286733,-3.27769 1.257833,-4.94248 -0.782306,-1.2658 -1.738915,-1.8264 -3.116554,-1.8264 -2.146915,0 -3.728779,1.56873 -3.728779,3.69783 0,2.77966 3.20697,4.5423 5.5875,3.07105 z m 25.117776,0 c 1.62287,-1.00299 2.25434,-3.14879 1.40817,-4.78509 -1.31821,-2.54915 -5.04049,-2.67737 -6.48999,-0.22357 -1.89925,3.21518 1.9096,6.9692 5.08182,5.00866 z m 50.36947,-30.052216 v -1.27 H 160.86666 149.86 v 1.27 1.27 h 11.00666 11.00667 z m -4.23334,-8.043333 v -2.257778 h -6.49111 -6.49111 v 2.257778 2.257778 h 6.49111 6.49111 z M 105.77548,208.1245 c -0.80139,-0.62835 -1.05855,-1.70372 -0.64348,-2.69087 0.39982,-0.95089 0.57343,-1.03446 3.07263,-1.47904 2.99755,-0.53323 5.33213,-2.43028 6.2286,-5.06129 0.57872,-1.69843 0.54306,-2.98196 -0.13895,-5.0015 -0.55303,-1.63759 -3.31663,-7.40079 -5.06227,-10.55681 -1.0397,-1.87973 -1.07495,-2.63161 -0.16595,-3.5406 0.83545,-0.83546 2.18941,-0.91503 2.93211,-0.17233 0.69056,0.69055 3.94726,6.65255 5.20477,9.5283 1.35094,3.08942 2.17706,5.8513 2.17706,7.2784 0,6.01222 -5.19326,11.59603 -11.11632,11.9523 -1.40475,0.0845 -2.15141,0.008 -2.4882,-0.25656 z"
       id="path21"
       inkscape:connector-curvature="0" />
  </g>
</svg>
