<?xml version="1.0" encoding="UTF-8" standalone="no"?>
<!-- Created with Inkscape (http://www.inkscape.org/) -->

<svg
   xmlns:dc="http://purl.org/dc/elements/1.1/"
   xmlns:cc="http://creativecommons.org/ns#"
   xmlns:rdf="http://www.w3.org/1999/02/22-rdf-syntax-ns#"
   xmlns:svg="http://www.w3.org/2000/svg"
   xmlns="http://www.w3.org/2000/svg"
   xmlns:sodipodi="http://sodipodi.sourceforge.net/DTD/sodipodi-0.dtd"
   xmlns:inkscape="http://www.inkscape.org/namespaces/inkscape"
   width="190.78368mm"
   height="177.43379mm"
   viewBox="0 0 190.78367 106.99094"
   version="1.1"
   id="svg8"
   inkscape:version="0.92.3 (2405546, 2018-03-11)"
   sodipodi:docname="svg-3.svg">
	<style type="text/css">
	<![CDATA[
		path {
			fill:#007aff;
		}
	]]> 
  </style>
  <defs
     id="defs2" />
  <sodipodi:namedview
     id="base"
     pagecolor="#ffffff"
     bordercolor="#666666"
     borderopacity="1.0"
     inkscape:pageopacity="0.0"
     inkscape:pageshadow="2"
     inkscape:zoom="0.35"
     inkscape:cx="451.70167"
     inkscape:cy="287.73628"
     inkscape:document-units="mm"
     inkscape:current-layer="layer1"
     showgrid="false"
     inkscape:window-width="1280"
     inkscape:window-height="981"
     inkscape:window-x="0"
     inkscape:window-y="19"
     inkscape:window-maximized="1" />
  <metadata
     id="metadata5">
    <rdf:RDF>
      <cc:Work
         rdf:about="">
        <dc:format>image/svg+xml</dc:format>
        <dc:type
           rdf:resource="http://purl.org/dc/dcmitype/StillImage" />
        <dc:title></dc:title>
      </cc:Work>
    </rdf:RDF>
  </metadata>
  <g
     inkscape:label="Capa 1"
     inkscape:groupmode="layer"
     id="layer1"
     transform="translate(56.771934,-50.553565)">
    <path
       d="m -1.2207938,192.4286 c -1.4823,-0.89748 -2.59258,-2.62112 -3.23598,-5.02366 -0.49077,-1.8326 -0.46945,-4.95461 0.0467,-6.83542 0.67891,-2.47397 1.9215,-4.35786 3.24774,-4.9239 0.46141004,-0.19693 2.50257,-0.29098 6.31496,-0.29098 4.289872,0 5.6862908,-0.0742 5.8559038,-0.31109 0.23907,-0.33391 1.12086,-2.84957 2.598651,-7.41369 0.243229,-0.7512 0.740032,-2.2602 1.104007,-3.35332 l 0.66177,-1.9875 -7.5145838,-0.15302 c -7.89717796,-0.16082 -8.59148796,-0.25579 -11.185268,-1.53013 -3.7012099,-1.81842 -7.6152902,-6.33204 -10.2343702,-11.80205 -2.51075,-5.24373 -3.89351,-10.82135 -4.59347,-18.52853 l -0.0822,-0.90516 -2.52923,-0.10377 -2.52922,-0.10378 -1.10121,-0.88484 c -1.32215,-1.06238 -2.58849,-2.99285 -3.29435,-5.02209 -0.86392,-2.48359 -0.96364,-3.82546 -0.96364,-12.96707 v -8.10132 h -7.62299 -7.623 l -0.0487,5.66176 -0.0487,5.66176 -0.4322,1.49321 c -0.56681,1.95824 -1.61212,3.66607 -2.68618,4.38874 -0.75028,0.50481 -1.10333,0.57027 -3.12177,0.5789 -1.82868,0.008 -2.45516,-0.0831 -3.1886,-0.46268 -1.17814,-0.60975 -2.30591,-2.2726 -2.90853,-4.2885 l -0.43668,-1.46081 V 88.748378 c 0,-24.990641 2.6e-4,-25.012238 0.31255,-26.156801 0.53672,-1.967097 1.37781,-3.418078 2.55058,-4.400042 0.79057,-0.661948 0.86466,-0.676163 3.52385,-0.676163 2.69225,0 2.72374,0.0063 3.55543,0.709337 1.02492,0.866399 1.92127,2.466296 2.43606,4.348122 0.37542,1.372351 0.38811,1.576484 0.43976,7.074883 l 0.0532,5.661761 h 7.623 7.62299 v -8.054261 c 0,-4.429843 0.0671,-8.657498 0.14906,-9.394789 0.40026,-3.599699 1.9149,-6.957867 3.84756,-8.530617 1.29561,-1.054339 2.43154,-1.391519 4.69624,-1.393998 l 1.71857,-0.002 0.0868,-0.933257 c 0.30995,-3.331213 0.45918,-4.448585 0.90573,-6.781668 0.54346,-2.839399 1.45882,-6.236619 2.12436,-7.8842 0.23113,-0.572061 0.42024,-1.109996 0.42024,-1.195299 0,-0.339693 1.73081,-3.841104 2.7339,-5.530654 3.2199202,-5.423456 7.4823402,-8.981553 11.99615024,-10.01391 0.7893,-0.180523 18.91290976,-0.262682 57.94543476,-0.262682 55.618839,0 56.831479,0.01005 58.463309,0.484687 2.7778,0.807948 4.98683,2.176266 7.2775,4.507836 5.0651,5.155524 8.36705,12.911065 9.90051,23.254059 l 0.33208,2.239817 0.0533,41.312179 c 0.0385,29.845912 0.007,41.933852 -0.1135,43.552002 -0.55719,7.48292 -2.47894,14.44733 -5.51513,19.98679 -3.04676,5.55872 -6.79035,9.12343 -11.35889,10.81607 -1.36768,0.50672 -1.82552,0.52315 -17.011394,0.61045 l -15.605865,0.0897 0.519384,1.62995 c 0.285657,0.89648 0.519376,1.77832 0.519376,1.95964 0,0.18132 0.0508,0.36699 0.112882,0.41262 0.11913,0.0876 1.052037,2.71489 1.70843,4.81146 0.554146,1.76997 1.155988,3.48246 1.385108,3.94121 0.172083,0.34455 0.9464,0.40236 6.240145,0.46589 l 6.043714,0.0725 0.88096,0.78701 c 1.12314,1.00336 1.8604,2.30549 2.37256,4.19036 0.33973,1.25029 0.40667,1.83732 0.41144,3.60859 0.005,1.80958 -0.0539,2.33123 -0.40636,3.60858 -0.64008,2.31941 -1.66794,3.8738 -3.10122,4.68984 -0.66795,0.38029 -4.608094,0.41114 -51.2427,0.40105 -41.1838858,-0.009 -50.61829376,-0.071 -51.0558738,-0.33591 z M 100.27678,185.58482 c 0.49687,-0.68198 0.4855,-2.36701 -0.0204,-3.02594 -0.355924,-0.46356 -1.436864,-0.47384 -50.378836,-0.47925 -48.8588278,-0.006 -50.02302776,0.006 -50.35838776,0.46563 -0.4846,0.66512 -0.48126,2.28037 0.006,2.99696 l 0.34949,0.51377 H 49.903976 c 48.87022,0 50.0373,-0.0109 50.372634,-0.47117 z M 84.082884,175.16799 c -0.29657,-1.10124 -1.423498,-4.63827 -1.884855,-5.91588 -0.321979,-0.89164 -0.585415,-1.71575 -0.585415,-1.83135 0,-0.1156 -0.400395,-1.34499 -0.889767,-2.73198 l -0.889771,-2.52179 -29.880993,-0.0634 c -27.067058,-0.0574 -29.900748,-0.0264 -30.090767,0.32949 -0.115375,0.21609 -0.209773,0.46932 -0.209773,0.56274 0,0.0934 -0.518111,1.70846 -1.151356,3.589 -2.00939,5.96724 -2.812979,8.42381 -2.812979,8.59929 0,0.0938 15.400337,0.17053 34.222968,0.17053 18.822635,0 34.200352,-0.084 34.172708,-0.18665 z M 96.735816,88.745076 v -66.70008 l -48.269441,0.07608 c -44.9372988,0.07082 -48.33859876,0.105417 -49.27141876,0.501084 -2.57615004,1.092718 -4.69631004,2.746261 -6.70081994,5.226073 -1.1545201,1.428288 -2.9312303,4.528299 -3.6741403,6.410669 -1.43283,3.630524 -2.45248,7.83596 -2.8598,11.795056 -0.33191,3.226091 -0.34035,81.682582 -0.009,85.126512 0.91388,9.503 4.8393002,18.01179 10.0510402,21.78679 1.57406,1.14014 3.49601004,1.97024 5.13488,2.2178 0.69431,0.10488 22.4880908,0.20631 48.4306198,0.2254 l 47.16823,0.0347 z M -0.47957376,140.92375 c -1.18675004,-0.82908 -1.70940004,-1.54191 -2.33674004,-3.1871 -0.68484,-1.79597 -0.94693,-3.52726 -0.81719,-5.39825 0.1994,-2.87563 1.20627,-5.35188 2.75479004,-6.77493 l 0.92883,-0.85358 H 42.776824 85.503535 l 0.855817,0.71228 c 0.981565,0.81693 1.679829,1.91188 2.225259,3.4894 0.447435,1.29409 0.522572,1.75369 0.621487,3.80161 0.157916,3.26935 -0.931392,6.42437 -2.804497,8.12284 l -0.60441,0.54806 -42.726713,0.0574 -42.72671176,0.0574 z M 84.98964,134.29133 c 0.377438,-0.63975 0.373493,-1.50293 -0.01065,-2.33069 l -0.304307,-0.65573 H 42.855846 c -39.6138898,0 -41.8348298,0.023 -42.12247976,0.43552 -0.4683,0.67164 -0.53267,1.58708 -0.167,2.37502 l 0.31261,0.67362 H 42.787481 c 41.712738,0 41.909877,-0.002 42.202159,-0.49774 z M 0.42506624,111.86035 c -1.48231004,-0.41899 -2.96288004,-2.39656 -3.64695004,-4.87113 -0.33765,-1.22144 -0.39795,-1.76604 -0.39389,-3.5576 0.004,-1.81148 0.0636,-2.31202 0.41395,-3.484157 0.71936,-2.406466 1.82769,-3.931327 3.36000004,-4.622721 1.19966996,-0.541302 84.08735176,-0.526283 85.31444676,0.01545 2.769886,1.222863 4.362562,5.987758 3.559273,10.648468 -0.405369,2.35197 -1.754899,4.79647 -3.135745,5.68 -0.454889,0.29107 -7.133025,0.35085 -42.605432,0.38144 -24.637877,0.0212 -42.39729276,-0.0573 -42.86565276,-0.18976 z M 85.05473,104.62059 c 0.306105,-0.74076 0.288113,-1.50692 -0.05212,-2.21909 l -0.280683,-0.58753 H 42.776821 0.83171624 l -0.28068,0.58753 c -0.36225,0.75827 -0.35718,1.64706 0.013,2.27447 0.29229,0.49541 0.48942996,0.49773 42.27790576,0.49773 h 41.984251 l 0.228566,-0.55311 z M -0.02425376,82.046132 C -1.3868438,81.340396 -2.5224038,79.723058 -3.1341538,77.616818 c -0.42349,-1.458082 -0.48282,-1.906758 -0.4845,-3.6643 -0.002,-1.652584 0.0655,-2.242102 0.38357,-3.371547 0.54791,-1.945552 1.3437,-3.381932 2.38449004,-4.303913 l 0.90071,-0.797892 H 42.776824 85.503535 l 0.853553,0.7104 c 1.009276,0.840011 1.886349,2.296036 2.420396,4.018102 0.337062,1.086879 0.38629,1.543523 0.389033,3.608595 0.0029,2.10786 -0.04249,2.520269 -0.417697,3.802954 -0.469719,1.605804 -1.424397,3.171715 -2.435234,3.99438 l -0.663223,0.539765 -42.653298,0.04169 C 19.537751,82.217982 0.17815624,82.150962 -0.02425376,82.046138 Z M 84.98964,75.060605 c 0.377438,-0.639746 0.373493,-1.502924 -0.01065,-2.330689 L 84.674683,72.074182 H 42.925007 c -22.962317,0 -41.8566308,0.06957 -41.98735076,0.154593 -0.22944,0.149234 -0.6673,1.32406 -0.6673,1.790435 0,0.125216 0.13694,0.522745 0.30431,0.883401 l 0.30431,0.655734 H 42.787485 c 41.712738,0 41.909877,-0.0021 42.202159,-0.49774 z M 0.56222624,52.662261 C -1.0634938,52.194795 -2.4227038,50.474405 -3.1356438,47.981759 c -0.42615,-1.489956 -0.47553,-1.888405 -0.46851,-3.780856 0.006,-1.653669 0.0802,-2.378606 0.33918,-3.32136 0.63346,-2.3057 1.80276,-3.979689 3.32749004,-4.76368 0.63235,-0.325142 5.91416196,-0.371437 42.64675276,-0.373797 45.59525,-0.003 42.844439,-0.0862 44.152353,1.33654 0.825172,0.897618 1.596725,2.368066 1.974247,3.762571 0.507101,1.873184 0.485014,5.203078 -0.04705,7.092754 -0.719594,2.555721 -2.080707,4.273263 -3.754739,4.737976 -1.024987,0.284539 -83.4815038,0.275121 -84.47185376,-0.0097 z M 85.05473,45.38987 c 0.328992,-0.796136 0.281924,-1.61889 -0.132835,-2.321897 l -0.361406,-0.61257 -41.864391,0.06393 -41.86439176,0.06393 -0.28067,0.587524 c -0.36071,0.755035 -0.3546,1.301446 0.0236,2.116468 l 0.30431,0.655734 H 42.852539 84.82613 Z m 31.20546,109.46512 c 7.20174,-2.63622 12.30697,-11.65277 13.57949,-23.98331 0.1958,-1.89711 0.22503,-7.36402 0.22544,-42.143358 0,-38.069115 -0.0126,-40.086377 -0.27628,-42.556525 -0.69677,-6.528269 -2.33137,-11.707233 -5.10683,-16.180151 -1.43051,-2.305409 -2.57066,-3.640748 -4.3481,-5.092461 -1.56024,-1.274323 -3.35406,-2.200813 -4.99838,-2.581605 -0.67471,-0.156254 -3.90012,-0.265979 -7.81855,-0.265979 h -6.67 v 66.718893 66.718886 l 7.15782,-0.11631 c 5.84418,-0.095 7.35926,-0.19005 8.25539,-0.51808 z M -18.376694,88.748378 V 54.902252 h -1.98802 c -1.6885,0 -2.07348,0.0739 -2.55527,0.490515 -0.70733,0.611637 -1.43807,2.084341 -1.62943,3.28389 -0.0934,0.585496 -0.13156,11.508775 -0.10649,30.486401 l 0.0391,29.573982 0.36707,1.10871 c 0.36468,1.1015 1.27324,2.37705 1.83534,2.57668 0.16151,0.0573 1.13607,0.11954 2.1657,0.13818 l 1.87204,0.0339 z m -29.87069,24.035872 c 0.27867,-0.34538 0.28501,-0.8799 0.28501,-24.037798 V 65.061885 l -0.34663,-0.475747 c -0.29935,-0.410867 -0.59325,-0.475749 -2.15504,-0.475749 -1.77878,0 -1.8134,0.01074 -2.11273,0.655734 -0.30294,0.652784 -0.30431,0.760532 -0.30431,23.960442 0,20.689795 0.0256,23.366765 0.22857,23.857815 0.21664,0.52426 0.33007,0.55312 2.17434,0.55312 1.44872,0 2.01859,-0.0902 2.23079,-0.35325 z m 19.59278,-24.160307 v -6.595017 h -7.63501 -7.63501 v 6.595017 6.595016 h 7.63501 7.63501 z"
       id="path826"
       inkscape:connector-curvature="0" />
  </g>
</svg>
